<?xml version="1.0" encoding="utf-8"?>
<!-- Generator: Adobe Illustrator 25.1.0, SVG Export Plug-In . SVG Version: 6.00 Build 0)  -->
<svg version="1.1" id="Layer_1" xmlns="http://www.w3.org/2000/svg" xmlns:xlink="http://www.w3.org/1999/xlink" x="0px" y="0px"
	 viewBox="0 0 543.6 389.3" style="enable-background:new 0 0 543.6 389.3;" xml:space="preserve">
<style type="text/css">
	.st0{fill:#FFFFFF;stroke:#1EBBA3;stroke-miterlimit:10;}
	.st1{fill:#1EBBA3;stroke:#1EBBA3;stroke-miterlimit:10;}
	.st2{fill:none;stroke:#1EBBA3;stroke-width:5.6885;stroke-miterlimit:10;}
	.st3{fill:#FFFFFF;stroke:#FFFFFF;stroke-miterlimit:10;}
	.st4{fill:#FFFFFF;}
	.st5{fill:none;stroke:#FFFFFF;stroke-width:5.6885;stroke-miterlimit:10;}
	.st6{fill:none;stroke:#000000;stroke-width:5.6885;stroke-miterlimit:10;}
</style>
<rect x="-0.8" y="-2.4" width="548.3" height="396.4"/>
<g>
	<g>
		<path class="st0" d="M86.1,66.5l16.2,9.5l-1.7,1.8c-3.4-2.1-10.5-6.3-13.5-8.4l0,0c2.1,3,6.2,10.3,8.3,13.7l-1.7,1.7
			c-3.4-2.1-10.3-6.1-13.4-8.4l0,0c2.2,3.2,6.2,10.1,8.3,13.6l-1.7,1.7l-9.3-16.5l1.7-1.7c3.3,2,10.6,6.2,13.4,8.4l0,0
			c-2.1-2.8-6.2-10.4-8.1-13.7L86.1,66.5z"/>
		<path class="st0" d="M86.5,92.7l-9.8-17.4L79,73c2.2,1.4,9.7,5.8,11.7,7.1c-1.3-2-5.6-9.7-6.9-11.9l2.3-2.3L103.1,76l-2.5,2.5
			c-2.5-1.6-9.5-5.8-11.9-7.3c1.5,2.4,5.6,9.6,7.2,12.1l-2.3,2.3c-2.5-1.5-9.5-5.7-11.8-7.2c1.5,2.3,5.7,9.5,7.1,11.9L86.5,92.7z
			 M77.9,75.5L86.7,91l1-1c-2.1-3.5-6-10.4-8.3-13.6l0.6-0.6c3.3,2.3,9.9,6.2,13.5,8.4l1.2-1.2c-2.2-3.6-5.9-10.4-8.3-13.7l0.6-0.6
			c3.2,2.1,10,6.3,13.5,8.4l1-1l-15.3-9L85,68.4c2.1,3.6,5.8,10.5,8.2,13.7l-0.6,0.6c-3.2-2.3-9.9-6.2-13.4-8.4L77.9,75.5z"/>
	</g>
	<g>
		<path class="st0" d="M72,95.4l4.3-5.6l-5.2-4L66.3,92l-1.6-1.2l6.3-8.1l14.4,11.2l-6,7.8l-1.6-1.2l4.6-5.9L77.8,91l-4.3,5.6
			L72,95.4z"/>
		<path class="st0" d="M79.4,102.3l-2.3-1.8l4.6-5.9l-3.8-2.9l-4.3,5.6l-2.3-1.8l4.3-5.6l-4.4-3.4l-4.8,6.2L64,90.9l6.9-8.9
			l15.2,11.8L79.4,102.3z M78.5,100.3l0.8,0.6l5.4-7L71.1,83.4l-5.7,7.3l0.8,0.6l4.8-6.2l6,4.6l-4.3,5.6l0.7,0.6l4.3-5.6l5.3,4.1
			L78.5,100.3z"/>
	</g>
	<g>
		<path class="st0" d="M77,104.5c-0.8,2.2-3.4,6.8-5.8,7.3c-2.9,1.2-6.2-1.9-5.2-5.2l0,0c-2.1,2.7-7.7,1.2-8.1-2.5
			c-0.8-2.2,2.4-7.3,4.1-9.2L77,104.5z M62.1,97.9c-6.1,6.4,2.2,12,5.9,3.7L62.1,97.9z M69.4,102.5c-5.5,6.3,2.2,10.8,4.9,3.1
			L69.4,102.5z"/>
		<path class="st0" d="M69.9,112.6c-2.5,0-4.7-2.2-4.6-4.9c-2.6,2.1-7.5,0.1-8-3.5c-0.9-2.4,2.6-8.1,4.5-9.9l15.8,10
			C76.4,107.5,73.7,112.7,69.9,112.6z M65.9,106l0.6,0.4c-0.4,9.3,8.3,4.3,9.9-1.7L62,95.6c-1.6,1.8-4.4,6.5-3.7,8.4
			C58.9,107.7,63.9,108.7,65.9,106z M70.3,110.3c-4.9-0.4-3.4-5.8-1-8.5l5.7,3.6C74.3,107.4,72.6,110.3,70.3,110.3z M69.6,103.2
			c-4.4,5.1,1.6,9.1,4.2,2.6L69.6,103.2z M63.2,106.4c-5.1-0.2-4.4-6.3-1.2-9.1l6.6,4.2C67.5,103.5,65.4,106.6,63.2,106.4z
			 M62.2,98.5c-5,5.8,2,10.1,5.1,3.2L62.2,98.5z"/>
	</g>
	<g>
		<path class="st0" d="M66.3,122.7c-3.6,20.4-28.1,9.3-16.4-7.2L66.3,122.7z M50.6,118.4c-8,11,10.7,19.7,13.2,5.8L50.6,118.4z"/>
		<path class="st0" d="M56.5,134.4c-10.9-0.4-12.8-11.8-6.9-19.5l17.2,7.5C65.5,127.9,62.5,134.6,56.5,134.4z M50.1,116.2
			c-10.8,15.4,12.1,25.9,15.6,6.8L50.1,116.2z M56.8,132c-7.7-0.1-11.2-8.3-6.4-14.2l13.9,6.1C63.7,127.5,60.8,132.3,56.8,132z
			 M50.8,119.1c-7,10.1,10.1,17.8,12.4,5.4L50.8,119.1z"/>
	</g>
	<g>
		<path class="st0" d="M47.5,145.7l2.1-6.7l-6.3-2l-2.4,7.5l-1.9-0.6l3.1-9.8l17.3,5.5l-3,9.4l-1.9-0.6l2.3-7.1l-5.5-1.7l-2.1,6.7
			L47.5,145.7z"/>
		<path class="st0" d="M56.9,149.6l-2.8-0.9l2.3-7.1l-4.5-1.4l-2.1,6.7l-2.8-0.9l2.1-6.7l-5.3-1.7l-2.4,7.5l-2.8-0.9l3.4-10.7
			l18.3,5.8L56.9,149.6z M55.3,148l0.9,0.3l2.7-8.4l-16.4-5.2l-2.8,8.8l0.9,0.3l2.4-7.5l7.2,2.3l-2.1,6.7l0.9,0.3l2.1-6.7l6.4,2
			L55.3,148z"/>
	</g>
	<g>
		<path class="st0" d="M36.9,152.9l19-2.1l-0.5,2.5c-4.3,0.4-12.3,1.4-16.4,1.4l0,0.1c3.7,1.8,10.6,6.1,14.4,8.3l-0.5,2.5
			l-16.5-10.1L36.9,152.9z"/>
		<path class="st0" d="M53.2,166.4l-17.4-10.7l0.7-3.2l20.1-2.2l-0.7,3.5c-3.5,0.3-11.7,1.2-15,1.4c3.2,1.7,9.9,5.8,13.1,7.7
			L53.2,166.4z M37,155.2l15.6,9.6l0.3-1.4c-4-2.3-10.3-6.3-14.4-8.3l0.2-0.8c4-0.2,12.1-1,16.4-1.5l0.3-1.5l-18,2L37,155.2z"/>
	</g>
	<g>
		<path class="st0" d="M33.8,163.4l18.5,9.9l-0.2,1.8l-18.5-9.9L33.8,163.4z"/>
		<path class="st0" d="M52.5,175.9l-19.4-10.4l0.4-2.9L52.9,173L52.5,175.9z M34.1,165l17.5,9.4l0.1-0.8l-17.6-9.4L34.1,165z"/>
	</g>
	<g>
		<path class="st0" d="M51.3,177.3c4.3,20.3-22.6,19.1-17.9-0.6L51.3,177.3z M35.1,179.1c-3.3,13.2,17.3,14.3,14.4,0.4L35.1,179.1z"
			/>
		<path class="st0" d="M42.8,192.5c-9.2,0.4-11.5-8.6-9.8-16.2l18.8,0.6C53,183.9,51.3,192.8,42.8,192.5z M33.8,177.3
			c-4.3,18.3,20.8,19.5,17,0.5L33.8,177.3z M42.8,190c-6.7,0.4-9.6-5.6-8.1-11.4l15.2,0.5C51.1,184.1,48.8,190.4,42.8,190z
			 M35.6,179.7c-2.7,12,16,12.8,13.5,0.4L35.6,179.7z"/>
	</g>
	<g>
		<path class="st0" d="M42.3,205.4l-0.5-7.1l-6.5,0.5l0.6,7.9l-2,0.1l-0.7-10.2l18.2-1.3l0.7,9.8l-2,0.1l-0.5-7.5l-5.7,0.4l0.5,7.1
			L42.3,205.4z"/>
		<path class="st0" d="M33.4,207.4l-0.8-11.2l19.1-1.4l0.8,10.8l-3,0.2l-0.5-7.5l-4.7,0.3l0.5,7.1l-2.9,0.2l-0.5-7.1l-5.5,0.4
			l0.6,7.9L33.4,207.4z M33.7,197.1l0.7,9.2l1-0.1l-0.6-7.9l7.5-0.5l0.5,7.1l0.9-0.1l-0.5-7.1l6.7-0.5l0.5,7.5l1-0.1l-0.6-8.8
			L33.7,197.1z"/>
	</g>
	<g>
		<path class="st0" d="M37.3,211c-3,5.5,4.4,12.1,6.2,3.6c1.6-10.5,12.9-4.5,9.9,3.5l-2-0.3c2.4-5.3-4.6-10.3-5.8-2.4
			c-2.1,10.9-13.9,3.8-10.3-4.8L37.3,211z"/>
		<path class="st0" d="M40.2,221.5c-4.3,0.8-7.6-7.3-5.2-11.3l3.1,0.4c-3.1,4.8,2.8,12.2,5,3.9c2.1-11.7,14.4-4.2,10.7,4.2l-3-0.5
			c0.9-1.7,1-6.8-2.2-6.4C44.7,213.2,46.8,222,40.2,221.5z M35.6,211.3c-2.8,7.6,7.5,14.2,9.5,4.1c1.1-8,9-4.2,7,2.1l1,0.2
			c2.2-7.2-7.6-12.5-9.1-2.9c-1.5,8.5-10.2,3.2-7.4-3.3L35.6,211.3z"/>
	</g>
	<g>
		<path class="st0" d="M55.5,224.7l-17.7,4.2l-0.5-2.3l17.7-4.2L55.5,224.7z"/>
		<path class="st0" d="M37.4,229.4l-0.8-3.3l18.7-4.4l0.8,3.3L37.4,229.4z M37.9,226.9l0.3,1.3l16.7-4l-0.3-1.3L37.9,226.9z"/>
	</g>
	<g>
		<path class="st0" d="M44.2,247.5c-13-16,15.6-26.2,15.7-5.7l-2,0.1c1.4-15-21.7-9.3-13.1,3l5.2-1.7l-1.1-3.5l1.8-0.6l1.9,5.7
			L44.2,247.5z"/>
		<path class="st0" d="M44.1,248.1c-14.3-17.3,17-27.7,16.4-5.8l-3,0.1c2.2-14-19.8-10.3-12.4,1.9l4.4-1.4l-1.1-3.5l2.7-0.9l2.2,6.6
			L44.1,248.1z M50.6,230.8c-9.2-0.2-11.5,10.2-6.2,16.2l7.5-2.4l-1.5-4.7l-0.8,0.3l1.1,3.5l-5.9,1.9c-9.7-12.5,14.3-19.9,13.8-4.1
			l1,0C59.9,236.4,55.6,230.3,50.6,230.8z"/>
	</g>
	<g>
		<path class="st0" d="M45.6,253.2l16.5-7.7l1.1,2.3c-2.4,3.6-7.2,11.6-9.9,14.6l0,0c3.5-2.1,9.7-4.8,13.6-6.6l0.9,2l-16.5,7.7
			l-1-2.2c2.5-3.8,7.2-11.4,10-14.8l-0.1-0.1c-3.3,1.8-10,4.8-13.8,6.6L45.6,253.2z"/>
		<path class="st0" d="M51.1,266.3l-1.3-2.9c1.9-2.8,7-10.9,8.9-13.3c-2.7,1.4-9.3,4.4-12.3,5.8L45,253l17.4-8.1l1.4,3
			c-1.8,2.7-6.7,10.7-8.6,13c2.8-1.5,9-4.2,12-5.7l1.4,2.9L51.1,266.3z M50.9,263.5l0.7,1.5l15.6-7.2l-0.5-1.1
			c-4,1.9-9.6,4.3-13.4,6.5l-0.7-0.5c2.8-3.3,7.5-10.9,10-14.8l-0.8-1.6l-15.6,7.2l0.5,1.1c3.9-1.8,10.2-4.7,13.6-6.6l0.6,0.6
			C58.5,251.7,53.3,259.8,50.9,263.5z"/>
	</g>
	<g>
		<path class="st0" d="M73,267.3c1.7,1.6,4.8,5.9,4.4,8.3c-0.1,3.2-4.2,4.9-6.9,2.7l0,0c1.6,3-2,7.5-5.6,6.4
			c-2.3-0.2-5.7-5.1-6.7-7.5L73,267.3z M60.8,278.2c3.4,8.1,11.9,2.9,5.8-3.8L60.8,278.2z M68.1,273.3c3.6,7.6,10.7,2.3,4.9-3.2
			L68.1,273.3z"/>
		<path class="st0" d="M65.9,285.2c-3.5,0.4-7.2-5.3-8.5-8.3L73,266.6c5.2,3.8,7.7,15.1-1.9,12.6C71.9,281.9,69.1,285.4,65.9,285.2z
			 M58.7,277.3c1,2.2,4.2,6.7,6.2,6.8c3.6,1,6.5-3.2,4.9-6.1l0.6-0.4c8.3,4.2,7.3-5.9,2.5-9.7L58.7,277.3z M65.5,282.9
			C63,283,61,280,60.2,278l6.5-4.3C69.5,276.6,70.9,282.5,65.5,282.9z M61.4,278.3c3.1,6.9,10,2.4,5-3.3L61.4,278.3z M72.4,277.7
			c-2.1,0.2-4-2.7-5.1-4.5l5.6-3.7C75.8,271.6,77.3,277.3,72.4,277.7z M68.7,273.5c3,6.2,8.9,2.1,4.1-2.7L68.7,273.5z"/>
	</g>
	<g>
		<path class="st0" d="M69.8,293.7l6-4.9l4.5-11.1l1.7,2.1c-1.1,2.4-2.9,6.7-4.1,8.9l0,0c2.3-0.6,7.1-1.5,9.6-2.1l1.7,2.1l-12,1.9
			l-6,4.9L69.8,293.7z"/>
		<path class="st0" d="M71.2,296.2l-2.1-2.6l6.3-5.1l4.8-11.7l2.4,3c-0.9,1.9-2.9,6.6-3.7,8.3c1.6-0.4,7.2-1.5,8.9-1.9l2.4,3
			l-12.7,2L71.2,296.2z M70.5,293.8l0.9,1.1l5.7-4.7l11.2-1.7l-0.9-1.2c-2.4,0.5-7.3,1.4-9.6,2.1l-0.4-0.5c1-2.2,3-6.5,4-9l-1-1.2
			l-4.2,10.4L70.5,293.8z"/>
	</g>
	<g>
		<path class="st0" d="M95.1,295.1c2,1.2,6.1,4.6,6.2,7c0.6,3.1-3,5.7-6,4.2l0,0c2.3,2.5-0.2,7.8-4,7.5c-2.3,0.4-6.8-3.6-8.3-5.7
			L95.1,295.1z M85.8,308.6c5.2,7.1,12.2,0,4.7-5.1L85.8,308.6z M91.7,302.2c5.3,6.5,11-0.3,4-4.3L91.7,302.2z"/>
		<path class="st0" d="M91.2,314.4c-2.5,0.4-7.5-4.1-9-6.2L95,294.5c6,2.5,11,12.9,1.1,12.7C97.7,310.1,94.9,314.6,91.2,314.4z
			 M83.6,308.3c1.5,1.9,5.6,5.5,7.6,5.2c3.7,0.1,5.6-4.7,3.3-7.1l0.5-0.5c9.1,2.1,5.8-7.5,0.1-10L83.6,308.3z M90.6,312.2
			c-2,0.1-4.4-2.1-5.5-3.6l5.3-5.8C94.6,305.4,96.4,311.4,90.6,312.2z M86.4,308.6c5.1,6.2,10.1-0.3,4.1-4.4L86.4,308.6z
			 M96.2,305.5c-1.9,0.1-3.8-2-5.2-3.3l4.6-5C99.3,298.8,101.6,304.9,96.2,305.5z M92.4,302.2c4.2,5.3,9.2,0,3.4-3.6L92.4,302.2z"/>
	</g>
	<g>
		<path class="st0" d="M106.1,305.1c2.4,1.2,6.9,4.2,7.1,6.8c0.8,3.4-3.4,6.6-6.5,5.2l0,0.1c2,2.2-2,7.9-2,9.4l-1.9-1.5
			c1-3.8,4.9-7.5-0.9-10.6l-4.8,6.3l-1.9-1.4L106.1,305.1z M103,313.1c6.2,6.5,12-1.8,4-5.3L103,313.1z"/>
		<path class="st0" d="M105.1,327.5l-2.8-2.2c0.2-2.9,5-7.5-0.2-10.1l-4.8,6.3l-2.7-2l11.4-15c7.4,2.6,12.3,12.8,1.6,13.4
			C108.6,320.6,105,325.5,105.1,327.5z M103.3,324.9l1.1,0.8c0.4-1.8,3.7-6.6,1.7-8.5l0.4-0.6c3.1,1.3,6.8-1.3,6.2-4.6
			c-0.2-2.3-4.3-5.1-6.5-6.3L96,319.3l1.1,0.8l4.8-6.3C107.5,317.1,105.4,319.8,103.3,324.9z M107.7,316.1c-1.8,0.2-4-1.9-5.4-2.9
			l4.5-6C111.6,308.4,113.6,315.6,107.7,316.1z M103.7,313c5,5.3,10.3-1.2,3.5-4.6L103.7,313z"/>
	</g>
	<g>
		<path class="st0" d="M111.8,331.1l4.1-6.6l0.6-11.9l2.3,1.4c-0.2,2.6-0.5,7.3-0.9,9.8l0,0c2-1.4,6.2-3.8,8.4-5.1l2.3,1.4
			l-10.7,5.7l-4.1,6.6L111.8,331.1z"/>
		<path class="st0" d="M114,333.1l-2.9-1.8l4.2-6.9l0.6-12.7l3.3,2c-0.2,2.1-0.5,7.1-0.8,9.1c1.7-1.1,6-3.6,7.8-4.7l3.3,2l-11.3,6
			L114,333.1z M112.5,331l1.2,0.7l3.9-6.3c0.1-0.1,9.9-5.3,10-5.4l-1.3-0.8c-2.1,1.3-6.4,3.8-8.4,5.2l-0.6-0.3
			c0.2-2.4,0.7-7.1,0.8-9.8l-1.3-0.8l-0.6,11.2L112.5,331z"/>
	</g>
	<g>
		<path class="st0" d="M125.8,332.6l-4.2,4.3l-2.2-1.1l13.6-13.6l2.5,1.3l-2.5,19.1l-2.3-1.1l0.8-6L125.8,332.6z M132,333.6
			c0.3-2.2,0.8-6.8,1.4-8.9l0,0c-1.4,1.7-4.6,4.9-6.2,6.5L132,333.6z"/>
		<path class="st0" d="M133.5,343.3l-3.2-1.6l0.8-6l-5.1-2.5l-4.2,4.3l-3.1-1.6l14.4-14.3l3.2,1.6L133.5,343.3z M131.3,341.2
			l1.3,0.6l2.4-18l-1.9-0.9l-12.9,12.8l1.2,0.6l4.2-4.3l6.4,3.2L131.3,341.2z M132.4,334.4l-6.2-3.1c1.9-1.9,5.2-5.1,6.9-7.2
			l0.7,0.3C133.4,326.8,132.7,331.9,132.4,334.4z M127.9,331l3.7,1.8c0.2-1.2,0.7-5.3,0.9-6.5C131.7,327.3,128.8,330.1,127.9,331z"
			/>
	</g>
	<g>
		<path class="st0" d="M137.6,344.5l6.1-17.1l2.4,0.9c0.9,4.2,3.2,13.2,3.5,17.3l0.1,0c1-3.9,3.4-10.3,4.8-14.3l2.1,0.7l-6.1,17.1
			l-2.2-0.8c-0.9-4.4-3.1-13.2-3.5-17.5l-0.1,0c-1,3.6-3.6,10.5-5,14.5L137.6,344.5z"/>
		<path class="st0" d="M150.8,349.7l-3-1.1c-0.7-3.3-2.9-12.6-3.3-15.7c-0.9,2.9-3.4,9.8-4.5,12.9l-3-1.1l6.5-18.1l3.1,1.1
			c0.7,3.1,2.9,12.3,3.3,15.3c0.9-3.1,3.3-9.4,4.4-12.5l3,1.1L150.8,349.7z M148.7,347.9l1.5,0.5l5.8-16.2l-1.1-0.4
			c-1.5,4.2-3.7,9.9-4.7,14.1l-0.8,0.1c-0.4-4.3-2.5-13-3.5-17.5L144,328l-5.8,16.2l1.1,0.4c1.4-4.1,3.9-10.6,4.9-14.3l0.8,0
			C145.6,334.2,147.7,343.6,148.7,347.9z"/>
	</g>
	<g>
		<path class="st0" d="M160.7,333l2.3,0.6l-3.9,15.8l7.6,1.9l-0.5,1.9l-9.8-2.4L160.7,333z"/>
		<path class="st0" d="M166.6,353.7l-10.8-2.6l4.6-18.6l3.3,0.8l-3.9,15.8l7.6,1.9L166.6,353.7z M157,350.3l8.9,2.2l0.2-0.9
			l-7.6-1.9l3.9-15.8l-1.3-0.3L157,350.3z"/>
	</g>
	<g>
		<path class="st0" d="M174.7,336.2c0,3.9-4.5,16.7,1.8,17c6.5,1.6,5.6-11.9,6.8-15.8l2.4,0.3c-1,5.6-0.9,19.6-9.5,17.3
			c-8.5-0.2-4.4-13.8-3.8-19.2L174.7,336.2z"/>
		<path class="st0" d="M177.5,355.7c-11.1,0.3-6.1-13.9-5.5-20.4l3.3,0.5c0.3,3.9-4.9,15.9,1.3,16.9c6.5,1,4.9-12.2,6.3-15.8
			l3.3,0.5C184.9,343,186.1,356.1,177.5,355.7z M172.8,336.4c-0.2,5.3-5.1,17.3,3.5,18.2c8.7,1.7,7.6-11.1,8.8-16.4l-1.4-0.2
			c-1.3,4.4,0.1,16.9-7.2,15.7c-7.1-1.1-2.3-12.6-2.3-17.1L172.8,336.4z"/>
	</g>
	<g>
		<path class="st0" d="M189.4,356.3l0.5-18.2l2.6,0.1c2.2,3.8,7.2,11.6,8.7,15.4l0.1,0c-0.3-4,0-10.8,0.1-15.1l2.2,0.1l-0.5,18.2
			l-2.4-0.1c-2.2-3.9-7.1-11.5-8.8-15.5l-0.1,0c0.2,3.8-0.1,11.1-0.2,15.3L189.4,356.3z"/>
		<path class="st0" d="M203.5,357.2l-3.2-0.1c-1.7-2.9-6.7-11.1-8-13.9c0.1,3.1-0.2,10.3-0.3,13.7l-3.2-0.1l0.5-19.2l3.3,0.1
			c1.6,2.8,6.6,10.8,7.9,13.5c-0.1-3.2,0.2-9.9,0.2-13.3l3.2,0.1L203.5,357.2z M200.9,356.1l1.6,0L203,339l-1.2,0
			c-0.1,4.5-0.4,10.6-0.1,14.9l-0.8,0.4c-1.7-4-6.5-11.6-8.8-15.5l-1.8,0l-0.4,17.2l1.2,0c0.1-4.3,0.4-11.2,0.2-15.1l0.8-0.2
			C193.7,344.1,198.7,352.3,200.9,356.1z"/>
	</g>
	<g>
		<path class="st0" d="M207.7,338.6c19.6-6.7,21.8,20.1,1.7,17.8L207.7,338.6z M211.5,354.4c13.5,1.7,12-18.9-1.3-14.3L211.5,354.4z
			"/>
		<path class="st0" d="M210,356.9c-0.3,0-0.7,0-1,0l-1.7-18.7C227.2,330.8,230.8,358.6,210,356.9z M209.8,355.9
			c18.7,2,16.8-23.1-1.6-16.9L209.8,355.9z M212.1,354.9c-0.4,0-0.7,0-1-0.1l-1.4-15.1C223.2,334.3,226.4,355.8,212.1,354.9z
			 M212,353.9c12.2,1.2,10.7-17.4-1.3-13.5L212,353.9z"/>
	</g>
	<g>
		<path class="st0" d="M236.9,343.9l-6.9,1.4l1.3,6.4l7.7-1.6l0.4,1.9l-10,2l-3.6-17.8l9.6-1.9l0.4,1.9l-7.3,1.5l1.1,5.6l6.9-1.4
			L236.9,343.9z"/>
		<path class="st0" d="M228.9,354.7l-3.8-18.8l10.6-2.1l0.6,2.9l-7.3,1.5l0.9,4.7l6.9-1.4l0.6,2.9l-6.9,1.4l1.1,5.5l7.7-1.6l0.6,2.9
			L228.9,354.7z M226.3,336.7l3.4,16.9l9.1-1.8l-0.2-1l-7.7,1.6l-1.5-7.4l6.9-1.4l-0.2-0.9l-6.9,1.4l-1.3-6.6l7.3-1.5l-0.2-1
			L226.3,336.7z"/>
	</g>
	<g>
		<path class="st0" d="M250.8,340l-6.8,2l1.9,6.3l7.6-2.3l0.6,1.9l-9.8,2.9l-5.2-17.4l9.4-2.8l0.6,1.9l-7.2,2.1l1.6,5.5l6.8-2
			L250.8,340z"/>
		<path class="st0" d="M243.9,351.5l-5.5-18.4l10.4-3.1l0.8,2.8l-7.2,2.1l1.4,4.6l6.8-2l0.8,2.8l-6.8,2l1.6,5.3l7.6-2.3l0.8,2.8
			L243.9,351.5z M239.6,333.8l4.9,16.5l8.9-2.6l-0.3-0.9l-7.6,2.3l-2.2-7.2l6.8-2l-0.3-0.9l-6.8,2l-1.9-6.5l7.2-2.1l-0.3-0.9
			L239.6,333.8z"/>
	</g>
	<g>
		<path class="st0" d="M258.8,346.3l-7-16.8l2.4-1c3.5,2.5,11.3,7.6,14.2,10.4l0,0c-1.9-3.6-4.4-9.9-6.1-13.8l2-0.9l7,16.8l-2.2,0.9
			c-3.7-2.7-11.2-7.6-14.4-10.6l-0.1,0.1c1.7,3.4,4.4,10.2,6.1,14L258.8,346.3z"/>
		<path class="st0" d="M258.6,346.9l-7.4-17.7l3.1-1.3c2.6,1.9,10.4,7.1,12.7,9.1c-1.4-2.9-3.9-9.1-5.2-12.2l3-1.2l7.4,17.7
			l-2.9,1.2c-2.7-2-10.6-7.4-13-9.4c1.3,2.8,4,9.5,5.3,12.6L258.6,346.9z M252.5,329.8l6.6,15.9l1.1-0.5c-1.7-4-4.3-10.4-6-13.9
			l0.6-0.5c3,2.6,10.9,8.1,14.5,10.6l1.5-0.6l-6.6-15.9l-1.1,0.5c1.8,4.1,3.9,9.8,6,13.6l-0.6,0.7c-3.2-2.9-10.6-7.9-14.4-10.6
			L252.5,329.8z"/>
	</g>
	<g>
		<path class="st0" d="M275.5,337.3c-1.1-1.9,1.9-3.5,2.9-1.5C279.5,337.8,276.5,339.4,275.5,337.3z"/>
		<path class="st0" d="M277,338.8c-0.8,0-1.5-0.5-1.9-1.2l0,0c-1-1.6,0.8-3.7,2.5-3.1C279.8,335.3,279.4,338.8,277,338.8z
			 M276.9,335.4c-0.9,0-1.4,0.9-1,1.7l0,0C277.3,339.3,279.3,335.7,276.9,335.4z"/>
	</g>
	<g>
		<path class="st0" d="M293.7,327.7c-12.1,15.3-27.7-10.4-8.9-14.6l0.5,1.9c-15,2.5-2.3,23.8,7,11.3L293.7,327.7z"/>
		<path class="st0" d="M285.1,333c-12.5-0.7-12.3-19.7,0.1-20.4l0.8,2.9c-15.2,1.9-2.3,23,6.3,10.1l2.1,2
			C293.2,330,288.2,333.3,285.1,333z M284.4,313.7c-16.9,4.1-2.7,27.9,8.6,14.1l-0.7-0.6c-9.8,11.9-22.6-9.2-7.7-12.5L284.4,313.7z"
			/>
	</g>
	<g>
		<path class="st0" d="M304.4,308.8c8.2,9.8-5.7,20.3-12.9,10.5C283.4,309.8,297.2,298.8,304.4,308.8z M293.4,317.7
			c5.5,7.9,15.5,0,9.1-7.3C296.8,302.5,286.9,310.1,293.4,317.7z"/>
		<path class="st0" d="M298.7,323.8c-18.4-2.3-8-30,6-15.3l0,0C310.5,315.7,305.8,323.4,298.7,323.8z M297.1,305.3
			c-10.7,0.4-8.8,15.9,0.4,17.4c7.3,1.1,11.8-7.6,6.5-13.6l0,0C302.1,306.7,299.8,305.3,297.1,305.3z M299.4,321.5
			c-2.4,0-4.8-1.5-6.4-3.5l0,0c-4.5-4.6-1.4-13.2,5.4-11.2C305.5,308.7,308.1,321.2,299.4,321.5z M293.8,317.4
			c5.3,7.4,14.3,0.2,8.3-6.7C296.9,303.4,287.7,310.4,293.8,317.4L293.8,317.4z"/>
	</g>
	<g>
		<path class="st0" d="M319.2,295.9c-1.9-1.7-4.2-3.7-5.8-5.3l-0.1,0.1c2.1,3.6,5.5,11,7.4,15l-1.2,1.3c-4-1.9-11.3-5.2-14.8-7.4
			l0,0c2.9,3,7.8,8.4,10.7,11.7l-1.6,1.6l-12.1-13.6l2.1-2.1c3.6,1.7,10.9,4.9,14.1,6.9l0.1-0.1c-2-3.1-5.4-10.6-7.1-14.1l2.1-2.1
			l13.8,11.9l-1.6,1.6L319.2,295.9z"/>
		<path class="st0" d="M313.8,313.5L301,299.2l2.7-2.7c2.8,1.3,10.5,4.8,13,6.2c-1.4-2.4-5-10.2-6.4-13l2.7-2.7l14.6,12.6l-2.3,2.4
			l-6.4-5.6l0.3-0.4l-0.4,0.3c-1.1-1-2.5-2.2-3.7-3.3c1.3,2.5,4.9,10,6.2,12.7l-1.7,1.8c-2.6-1.3-10-4.7-12.4-6
			c2.2,2.3,6.7,7.3,8.9,9.8L313.8,313.5z M302.4,299.2l11.5,12.9l0.9-0.9c-3.1-3.4-7.8-8.7-10.8-11.7l0.6-0.6
			c3.2,1.9,10.9,5.5,14.8,7.4l0.8-0.8c-2-4.1-5.3-11.3-7.4-14.9l0.6-0.6c1.9,1.6,4.1,3.8,6.2,5.5l-0.3,0.4l0.3-0.4l5.7,5l0.9-0.9
			l-13-11.3l-1.5,1.6c1.7,3.6,5.2,11.2,7.1,14.1l-0.5,0.6c-3.1-1.7-10.6-5.3-14.2-6.9L302.4,299.2z"/>
	</g>
</g>
<g>
	<path class="st1" d="M142.8,99.6c13.4,0,23.6,2.6,30.6,7.7c7,5.1,10.7,11.9,11,20.3c0.1,8-2.8,16.5-8.8,25.6
		c-6,9-14.7,17.4-26,24.9c0.4,0,0.7,0,0.8,0c18.9,0,30.8,6.8,35.6,20.5c4.4,11.7,2.8,25.5-5,41.2c-7.5,15.5-18.2,27.3-32.3,35.4
		c-9.9,5.7-20.2,8.5-30.8,8.5c-12,0-22.2-3-30.6-9c-8.4-6-12.6-13.5-12.6-22.5c0-7.2,2.7-13.3,8-18.3c5.3-5,12.1-8.9,20.4-11.7
		c-0.1-14.4-0.2-30.8-0.2-49.3c0-19.3,1.1-35.7,3.3-49.1c-0.4,0.6-1,1.3-1.7,2.2c-0.7,0.9-1.2,1.6-1.7,2.2c-0.4,0.6-0.9,1.2-1.4,1.9
		c-0.6,0.7-1,1.2-1.4,1.7s-0.9,0.8-1.3,1.1c-0.5,0.3-0.9,0.6-1.3,0.7c-0.4,0.1-0.8,0.2-1.2,0.2c-2.8,0-3-2.3-0.8-6.8
		c2.6-5.5,7.2-10.8,13.9-15.7c1.1-3,2.1-4.6,2.9-4.6c0.5,0,0.8,0.6,0.8,1.9C122.2,102.6,132.2,99.6,142.8,99.6z M143,104
		c-12.3,0-22.7,4.4-31.3,13.2c-2.6,18.4-3.9,37.1-3.9,56.3c0,16.1-0.1,31.9-0.4,47.2c4.8-1.4,9.6-2.3,14.3-2.7
		c4.7-0.4,8.5-0.4,11.3,0c2.8,0.4,4.2,1.2,4.2,2.3c0,0.7-1.3,1.3-4,1.8c-2.7,0.5-6.7,1.1-12,2c-5.3,0.8-9.9,1.7-13.8,2.7
		c-0.7,26.9-1.4,40.4-2.3,40.4c-1,0-1.7-13-2.1-39.1c-16.8,5-25.3,13.1-25.3,24.4c0,6.9,4,13,12.1,18.2c8.1,5.2,17.6,7.9,28.5,7.9
		c14.5,0,28.3-6.9,41.4-20.7c11.5-12,18.5-24.8,21.1-38.5c2.9-14.8-0.8-25-11-30.8c-5.1-2.9-11.6-4.3-19.5-4.3c-1.9,0-4,0.2-6.3,0.7
		c-2.3,0.5-4.3,1-6.1,1.7c-1.8,0.6-3.5,1.1-5.2,1.6c-1.7,0.4-2.9,0.5-3.8,0.3c-0.9-0.2-1.3-0.8-1.3-1.8c0-1.4,1.2-2.8,3.6-4.1
		c2.4-1.4,5.4-2.4,9-3.1c11.3-7.3,20.5-15.7,27.5-25.3s10.6-18.4,10.6-26.5c0.1-7.2-2.7-12.9-8.6-17.2C163.9,106.1,155,104,143,104z
		"/>
	<path class="st1" d="M249.2,116c12.7,0,19.3,8.6,19.9,25.9c0.4,16.7-4.4,36.2-14.5,58.6c-9.2,20.6-19,34.5-29.2,41.8
		c-0.4,0.3-0.8,0.5-1,0.6c4,13.5,11.3,23.2,21.9,29c8.6,4.6,17.9,7.3,28,8.2c10.1,0.9,20.5,0.4,30.9-1.6c10.5-1.9,21.6-4.4,33.2-7.3
		c11.7-3,24.2-5.8,37.6-8.5c13.4-2.7,27.1-4.7,41.1-5.9c14-1.2,29.6-0.7,46.7,1.6c17.1,2.3,34.4,6.7,51.7,13.1
		c2.6,1,3.6,2.5,2.9,4.6c-0.8,2.2-2.9,2.8-6.2,1.7c-17.5-6.3-34.9-10.7-52.1-12.9s-32.7-2.9-46.5-1.9c-13.8,1-27.3,2.8-40.5,5.4
		c-13.2,2.6-25.5,5.2-36.9,8.1c-11.5,2.8-22.4,5.1-32.8,6.9c-10.4,1.8-20.7,2.1-30.9,1c-10.2-1.1-19.8-4-28.8-8.7
		c-10.6-5.7-18.7-15.5-24.3-29.6c-5.6-14.1-8.4-30.5-8.4-49.3c0.4-13.8,2.2-26.7,5.3-38.8c3.1-12.1,7.6-22.1,13.4-30
		C235.5,119.9,242,116,249.2,116z M249,121.8c-5.5,0-10.7,3.6-15.4,10.9c-4.8,7.2-8.5,16.6-11.3,28c-2.8,11.5-4.2,23.5-4.3,36
		c-0.1,16.8,1.7,31.1,5.4,42.8c9.4-7,18.5-20.8,27.3-41.4c9.5-22.2,13.9-41,13.2-56.3C263.3,128.5,258.4,121.8,249,121.8z"/>
</g>
<path class="st2" d="M353,260.3c30.7-55.3,25.6-124.4-22.5-177.6C269.7,15.5,165.4,5.5,101.3,57.1"/>
<rect x="-134.9" y="-944.7" width="835.5" height="617.1"/>
<g>
	<g>
		<path class="st3" d="M71.8-761.9l16.2,9.5l-1.7,1.8l-8.1-4.9c-2-1.2-3.9-2.5-5.4-3.5l0,0c1.1,1.5,2.2,3.4,3.4,5.5l4.8,8.2
			l-1.7,1.7l-8.1-4.9c-1.9-1.2-3.8-2.3-5.3-3.5l0,0c1.2,1.7,2.2,3.5,3.4,5.5l4.8,8.2l-1.7,1.7L63.1-753l1.7-1.7l8.3,5
			c2,1.2,3.6,2.2,5.1,3.3l0,0c-1.1-1.5-2-3-3.2-5.2l-4.9-8.5L71.8-761.9z"/>
		<path class="st3" d="M72.3-735.7l-9.8-17.4l2.3-2.3l8.7,5.2c1.1,0.7,2.1,1.3,3,1.9c-0.6-0.9-1.2-1.9-1.8-3.1l-5.1-8.8l2.3-2.3
			l17.1,10.1l-2.5,2.5l-8.4-5.2c-1.2-0.7-2.4-1.5-3.5-2.2c0.7,1.1,1.4,2.4,2.1,3.6l5,8.5l-2.3,2.3l-8.5-5.1
			c-1.1-0.7-2.3-1.4-3.3-2.1c0.6,1,1.3,2,1.9,3.1l0.2,0.3l5,8.5L72.3-735.7z M63.7-752.9l8.8,15.6l1-1l-4.8-8.1
			c-1.2-1.9-2.2-3.6-3.2-5.1l-0.2-0.3l0.6-0.6l0.4,0.2c1.5,1.2,3.5,2.3,5.3,3.5l7.8,4.7l1.2-1.2l-4.6-7.9c-1.1-1.9-2.3-4-3.4-5.5
			l-0.2-0.3l0.6-0.6l0.4,0.2c1.5,1,3.4,2.3,5.4,3.5l7.7,4.7l1-1l-15.3-9l-1.2,1.2l4.7,8.2c1.1,2,2.1,3.5,3.2,5.1l0.2,0.3l-0.6,0.6
			l-0.4-0.2c-1.5-1.2-3.1-2.2-5-3.3l-8-4.8L63.7-752.9z"/>
	</g>
	<g>
		<path class="st3" d="M57.7-733l4.3-5.6l-5.2-4l-4.8,6.2l-1.6-1.2l6.3-8.1l14.4,11.2l-6,7.8l-1.6-1.2l4.6-5.9l-4.5-3.5l-4.3,5.6
			L57.7-733z"/>
		<path class="st3" d="M65.2-726.1l-2.3-1.8l4.6-5.9l-3.8-2.9l-4.3,5.6l-2.3-1.8l4.3-5.6l-4.4-3.4l-4.8,6.2l-2.3-1.8l6.9-8.9
			l15.2,11.8L65.2-726.1z M64.2-728.1l0.8,0.6l5.4-7L56.8-745l-5.7,7.3l0.8,0.6l4.8-6.2l6,4.6l-4.3,5.6l0.7,0.6l4.3-5.6l5.3,4.1
			L64.2-728.1z"/>
	</g>
	<g>
		<path class="st3" d="M62.8-723.9c-0.4,1-1.1,2.4-2,3.8c-1.3,2-2.4,3-3.8,3.5c-1.1,0.4-2.3,0.3-3.5-0.4c-1.5-0.9-2.2-2.7-1.7-4.7
			l0,0c-1.3,1.2-3.6,2.2-5.9,0.7c-1.3-0.8-2-2-2.3-3.3c-0.3-1.7,0.3-3.7,1.9-6.2c0.9-1.4,1.6-2.4,2.1-3L62.8-723.9z M47.8-730.5
			c-0.3,0.3-0.7,0.9-1.1,1.6c-1.3,2.1-1.8,4.4,0.5,5.8c2.1,1.3,4.1,0.1,5.5-2.1l1-1.6L47.8-730.5z M55.2-725.9l-1.1,1.8
			c-1.3,2.1-1,4,0.5,5c1.8,1.1,3.4,0.2,4.6-1.8c0.6-0.9,0.8-1.5,1-1.8L55.2-725.9z"/>
		<path class="st3" d="M55.7-715.8c-0.8,0-1.7-0.3-2.5-0.8c-1.4-0.9-2.1-2.4-2.1-4.1c-1.5,0.9-3.5,1.3-5.5,0.1
			c-1.3-0.8-2.2-2-2.5-3.6c-0.3-1.8,0.3-4,2-6.6c1-1.6,1.8-2.6,2.2-3l0.3-0.3l15.8,10l-0.1,0.4c-0.4,1.1-1.2,2.6-2,3.9
			c-1.3,2.1-2.6,3.2-4.1,3.7C56.7-715.9,56.2-715.8,55.7-715.8z M51.6-722.4l0.6,0.4l0,0.4c-0.4,1.8,0.2,3.4,1.5,4.2
			c1,0.6,2.1,0.8,3.1,0.4c1.3-0.4,2.4-1.4,3.6-3.3c0.7-1.1,1.4-2.4,1.8-3.4l-14.4-9.1c-0.4,0.5-1.1,1.4-1.8,2.6
			c-1.5,2.4-2.1,4.3-1.9,5.9c0.3,1.2,0.9,2.2,2,2.9c2,1.3,4,0.5,5.3-0.7L51.6-722.4z M56.1-718.1c-0.6,0-1.2-0.2-1.8-0.6
			c-0.9-0.5-1.4-1.4-1.5-2.4c-0.1-1,0.2-2.1,0.9-3.2l1.4-2.2l5.7,3.6l-0.1,0.4c-0.2,0.5-0.5,1.2-1,1.9c-0.7,1.1-1.5,1.9-2.3,2.3
			C56.9-718.2,56.5-718.1,56.1-718.1z M55.4-725.2l-0.9,1.4c-0.6,0.9-0.8,1.8-0.7,2.6c0.1,0.7,0.4,1.3,1.1,1.7
			c0.7,0.5,1.4,0.5,2.1,0.3c0.6-0.3,1.3-0.9,1.9-1.9c0.3-0.5,0.6-1,0.8-1.4L55.4-725.2z M48.9-722c-0.7,0-1.4-0.2-2-0.6
			c-2.2-1.4-2.4-3.8-0.6-6.5c0.5-0.8,0.9-1.3,1.2-1.7l0.3-0.3l6.6,4.2l-1.3,2.1C51.9-723,50.4-722,48.9-722z M47.9-729.9
			c-0.2,0.3-0.5,0.7-0.8,1.2c-0.8,1.3-1.9,3.7,0.3,5.1c2.3,1.5,4.1-0.9,4.8-1.9l0.8-1.2L47.9-729.9z"/>
	</g>
	<g>
		<path class="st3" d="M52-705.7c-0.4,1.4-0.9,3-1.7,4.7c-1.4,3.1-3,5-5,5.8c-2,0.9-4.3,0.9-7-0.3c-2.7-1.2-4.6-3-5.4-5.2
			c-0.9-2.2-0.6-5.2,0.8-8.4c0.7-1.5,1.3-2.8,1.9-3.8L52-705.7z M36.3-710c-0.3,0.5-0.7,1.3-1.1,2.1c-2,4.6-0.5,8.2,4,10.2
			c3.9,1.7,7.4,0.6,9.4-3.9c0.5-1.1,0.8-2,0.9-2.6L36.3-710z"/>
		<path class="st3" d="M42.3-693.9c-1.3,0-2.7-0.3-4.2-1c-2.8-1.2-4.8-3.1-5.7-5.5c-0.9-2.4-0.6-5.4,0.8-8.8
			c0.6-1.5,1.3-2.8,1.9-3.9l0.2-0.4l17.2,7.5l-0.1,0.4c-0.4,1.7-1,3.3-1.7,4.8c-1.4,3.2-3.1,5.2-5.3,6.1
			C44.5-694.2,43.4-693.9,42.3-693.9z M35.8-712.2c-0.6,1-1.1,2.1-1.7,3.4c-1.4,3.1-1.7,5.9-0.8,8c0.8,2.1,2.6,3.8,5.2,5
			c2.4,1.1,4.6,1.2,6.6,0.3c1.9-0.8,3.5-2.7,4.8-5.6c0.6-1.4,1.1-2.8,1.5-4.2L35.8-712.2z M42.5-696.4c-1.1,0-2.3-0.3-3.5-0.8
			c-2.4-1-4-2.5-4.7-4.4c-0.7-1.9-0.6-4.1,0.5-6.5c0.5-1,0.8-1.7,1.1-2.2l0.2-0.3l13.9,6.1l-0.1,0.4c-0.1,0.5-0.4,1.4-0.9,2.7
			c-1,2.4-2.5,3.9-4.3,4.6C44.1-696.5,43.3-696.4,42.5-696.4z M36.5-709.3c-0.3,0.5-0.6,1.2-0.8,1.7c-0.9,2.2-1.1,4.1-0.5,5.7
			c0.6,1.6,2,2.9,4.2,3.8c1.9,0.8,3.5,1,5,0.4c1.5-0.6,2.8-2,3.7-4.1c0.4-0.9,0.6-1.6,0.8-2.1L36.5-709.3z"/>
	</g>
	<g>
		<path class="st3" d="M33.2-682.7l2.1-6.7l-6.3-2l-2.4,7.5l-1.9-0.6l3.1-9.8l17.3,5.5l-3,9.4l-1.9-0.6l2.3-7.1l-5.5-1.7l-2.1,6.7
			L33.2-682.7z"/>
		<path class="st3" d="M42.7-678.8l-2.8-0.9l2.3-7.1l-4.5-1.4l-2.1,6.7l-2.8-0.9l2.1-6.7l-5.3-1.7l-2.4,7.5l-2.8-0.9l3.4-10.7
			l18.3,5.8L42.7-678.8z M41.1-680.4l0.9,0.3l2.7-8.4l-16.4-5.2l-2.8,8.8l0.9,0.3l2.4-7.5l7.2,2.3l-2.1,6.7l0.9,0.3l2.1-6.7l6.4,2
			L41.1-680.4z"/>
	</g>
	<g>
		<path class="st3" d="M22.7-675.5l19-2.1l-0.5,2.5l-9.4,0.9c-2.6,0.3-4.9,0.5-7.1,0.5l0,0.1c2,0.9,4,2.1,6.2,3.4l8.2,4.9l-0.5,2.5
			l-16.5-10.1L22.7-675.5z"/>
		<path class="st3" d="M39-662l-17.4-10.7l0.7-3.2l20.1-2.2l-0.7,3.5l-9.7,1c-2,0.2-3.7,0.4-5.3,0.4c1.6,0.8,3.2,1.8,4.6,2.6l8.5,5
			L39-662z M22.7-673.2l15.6,9.6l0.3-1.4l-7.9-4.7c-1.9-1.1-4.1-2.4-6.2-3.4l-0.4-0.2l0.2-0.8l0.4-0.1c2.1,0,4.3-0.2,7-0.5l9-0.9
			l0.3-1.5l-18,2L22.7-673.2z"/>
	</g>
	<g>
		<path class="st3" d="M19.6-665l18.5,9.9l-0.2,1.8l-18.5-9.9L19.6-665z"/>
		<path class="st3" d="M38.3-652.5l-19.4-10.4l0.4-2.9l19.4,10.4L38.3-652.5z M19.9-663.4l17.5,9.4l0.1-0.8L20-664.2L19.9-663.4z"/>
	</g>
	<g>
		<path class="st3" d="M37.1-651.1c0.2,1.4,0.3,3.1,0.2,5c-0.1,3.4-1,5.8-2.5,7.3c-1.5,1.6-3.7,2.5-6.6,2.4c-3-0.1-5.4-1.1-7-2.8
			c-1.6-1.8-2.5-4.6-2.4-8.1c0.1-1.7,0.2-3.1,0.3-4.3L37.1-651.1z M20.9-649.3c-0.1,0.6-0.2,1.5-0.2,2.4c-0.2,5,2.6,7.8,7.5,8
			c4.3,0.2,7.1-2.2,7.2-7.2c0-1.2,0-2.1-0.2-2.8L20.9-649.3z"/>
		<path class="st3" d="M28.6-635.9c-0.1,0-0.3,0-0.4,0c-3.1-0.1-5.6-1.1-7.3-3c-1.7-1.9-2.6-4.8-2.5-8.5c0-1.6,0.2-3,0.4-4.3
			l0.1-0.4l18.8,0.6l0.1,0.4c0.2,1.7,0.3,3.4,0.2,5.1c-0.1,3.5-1,6-2.6,7.6C33.5-636.8,31.3-635.9,28.6-635.9z M19.6-651.1
			c-0.1,1.1-0.2,2.4-0.3,3.8c-0.1,3.4,0.7,6.1,2.2,7.8c1.5,1.7,3.8,2.6,6.6,2.7c2.7,0.1,4.7-0.6,6.2-2.2c1.5-1.5,2.3-3.8,2.4-7
			c0-1.5,0-3-0.2-4.5L19.6-651.1z M28.6-638.4c-0.1,0-0.3,0-0.4,0c-2.6-0.1-4.6-0.9-6-2.3c-1.4-1.5-2.1-3.6-2-6.2
			c0-1.2,0.1-1.9,0.2-2.5l0.1-0.4l15.2,0.5l0.1,0.4c0.1,0.5,0.2,1.5,0.2,2.9c-0.1,2.6-0.8,4.5-2.3,5.9
			C32.4-639,30.7-638.4,28.6-638.4z M21.3-648.7c-0.1,0.6-0.1,1.3-0.1,1.9c-0.1,2.3,0.5,4.2,1.7,5.5c1.2,1.3,3,1.9,5.3,2
			c2,0.1,3.7-0.4,4.8-1.5c1.2-1.1,1.9-2.9,1.9-5.2c0-1,0-1.7-0.1-2.3L21.3-648.7z"/>
	</g>
	<g>
		<path class="st3" d="M28.1-623l-0.5-7.1l-6.5,0.5l0.6,7.9l-2,0.1l-0.7-10.2l18.2-1.3l0.7,9.8l-2,0.1l-0.5-7.5l-5.7,0.4l0.5,7.1
			L28.1-623z"/>
		<path class="st3" d="M19.2-621l-0.8-11.2l19.1-1.4l0.8,10.8l-3,0.2l-0.5-7.5l-4.7,0.3l0.5,7.1l-2.9,0.2l-0.5-7.1l-5.5,0.4l0.6,7.9
			L19.2-621z M19.4-631.3l0.7,9.2l1-0.1l-0.6-7.9l7.5-0.5l0.5,7.1l0.9-0.1l-0.5-7.1l6.7-0.5l0.5,7.5l1-0.1l-0.6-8.8L19.4-631.3z"/>
	</g>
	<g>
		<path class="st3" d="M23-617.4c-0.5,1.1-0.8,2.8-0.5,4.3c0.4,2.4,1.9,3.6,3.7,3.3c1.7-0.3,2.5-1.4,3-4c0.6-3.1,1.8-5.2,4.3-5.6
			c2.8-0.5,5.3,1.5,5.8,5c0.3,1.8,0.1,3.2-0.2,4.1l-2-0.3c0.2-0.6,0.6-1.9,0.3-3.6c-0.4-2.5-2-3.1-3.2-2.9c-1.7,0.3-2.3,1.5-2.9,4.1
			c-0.7,3.2-1.9,5-4.5,5.4c-2.8,0.5-5.5-1.2-6.2-5.4c-0.3-1.7-0.1-3.7,0.4-4.8L23-617.4z"/>
		<path class="st3" d="M26-606.9c-2.4,0-5.1-1.5-5.8-5.9c-0.3-1.8-0.1-3.9,0.4-5.1l0.2-0.3l3.1,0.4l-0.2,0.6
			c-0.5,1.2-0.7,2.8-0.5,4.1c0.2,1,0.6,1.8,1.1,2.3c0.5,0.5,1.2,0.6,2,0.5c1.2-0.2,2-0.9,2.6-3.6c0.6-3.6,2.2-5.6,4.7-6
			c3.2-0.5,5.8,1.7,6.4,5.4c0.4,2.2,0,3.7-0.3,4.4l-0.1,0.4l-3-0.5l0.2-0.6c0.3-0.7,0.5-1.9,0.3-3.3c-0.2-1-0.5-1.7-1.1-2.1
			c-0.4-0.3-1-0.5-1.6-0.4c-1.3,0.2-1.9,1.1-2.5,3.7c-0.8,3.7-2.2,5.4-4.9,5.8C26.6-606.9,26.3-606.9,26-606.9z M21.3-617.1
			c-0.4,1.1-0.5,2.7-0.2,4.1c0.6,3.5,2.8,5.5,5.6,5c2.3-0.4,3.4-1.8,4.1-5.1c0.5-2.6,1.3-4.2,3.3-4.5c0.8-0.1,1.6,0.1,2.3,0.6
			c0.5,0.4,1.3,1.2,1.5,2.8c0.2,1.3,0.1,2.4-0.1,3.2l1,0.2c0.2-0.7,0.3-1.8,0.1-3.5c-0.5-3.1-2.7-5-5.3-4.6c-2.1,0.3-3.3,2-3.9,5.2
			c-0.5,2.4-1.3,4-3.4,4.4c-1.1,0.2-2-0.1-2.8-0.7c-0.8-0.7-1.3-1.7-1.5-2.9c-0.2-1.3-0.1-2.7,0.3-4L21.3-617.1z"/>
	</g>
	<g>
		<path class="st3" d="M41.3-603.7l-17.7,4.2l-0.5-2.3l17.7-4.2L41.3-603.7z"/>
		<path class="st3" d="M23.2-599l-0.8-3.3l18.7-4.4l0.8,3.3L23.2-599z M23.6-601.5l0.3,1.3l16.7-4l-0.3-1.3L23.6-601.5z"/>
	</g>
	<g>
		<path class="st3" d="M30-580.9c-0.7-0.9-1.9-2.7-2.7-5c-0.9-2.6-0.9-5,0.2-7.2c1-2,3-3.6,5.7-4.5c5.2-1.7,10.1,0.7,12,6.5
			c0.7,2,0.7,3.7,0.6,4.6l-2,0.1c0.1-1.1,0.1-2.3-0.5-4.1c-1.4-4.2-4.9-6.1-9.2-4.7c-4.4,1.4-6.1,4.9-4.8,8.9c0.5,1.5,1,2.4,1.4,2.8
			l5.2-1.7l-1.1-3.5l1.8-0.6l1.9,5.7L30-580.9z"/>
		<path class="st3" d="M29.8-580.3l-0.2-0.3c-0.9-1.1-2-2.9-2.8-5.2c-0.9-2.9-0.9-5.4,0.2-7.6c1-2.1,3.2-3.9,6-4.8
			c5.6-1.8,10.7,0.9,12.6,6.8c0.7,2,0.8,3.8,0.6,4.8l-0.1,0.4l-3,0.1l0.1-0.6c0.1-0.8,0.1-2-0.5-3.9c-1.3-4-4.6-5.7-8.6-4.4
			c-2,0.7-3.5,1.8-4.3,3.3c-0.8,1.4-0.8,3.2-0.2,5.1c0.4,1.3,0.9,2.1,1.1,2.4l4.4-1.4L34-589l2.7-0.9l2.2,6.6L29.8-580.3z
			 M36.3-597.6c-1,0-2,0.2-3,0.5c-2.5,0.8-4.4,2.4-5.4,4.3c-1,2-1,4.2-0.2,6.8c0.6,2,1.6,3.5,2.4,4.6l7.5-2.4l-1.5-4.7l-0.8,0.3
			l1.1,3.5l-5.9,1.9l-0.2-0.2c-0.5-0.6-1.1-1.6-1.6-3c-0.7-2.1-0.6-4.1,0.3-5.8c0.9-1.7,2.6-3,4.8-3.7c4.5-1.5,8.4,0.5,9.9,5
			c0.5,1.6,0.6,2.8,0.6,3.7l1,0c0-0.9-0.1-2.3-0.6-3.9C43.3-595.2,40.1-597.6,36.3-597.6z"/>
	</g>
	<g>
		<path class="st3" d="M31.4-575.2l16.5-7.7l1.1,2.3l-5.9,9.2c-1.4,2.1-2.7,3.9-4,5.4l0,0c2.1-1.2,4.1-2.2,6.7-3.4l6.9-3.2l0.9,2
			l-16.5,7.7l-1-2.2l5.9-9.1c1.3-2,2.7-4,4.1-5.6l-0.1-0.1c-2,1.1-4,2.1-6.7,3.3l-7.1,3.3L31.4-575.2z"/>
		<path class="st3" d="M36.9-562.1l-1.3-2.9l6.1-9.4c1-1.6,1.9-2.9,2.8-4c-1.4,0.7-2.9,1.5-4.8,2.3l-7.5,3.5l-1.4-2.9l17.4-8.1
			l1.4,3l-6,9.4c-0.9,1.3-1.7,2.5-2.5,3.6c1.5-0.8,3-1.5,4.6-2.3l7.4-3.4l1.4,2.9L36.9-562.1z M36.7-564.9l0.7,1.5l15.6-7.2
			l-0.5-1.1l-6.5,3c-2.4,1.1-4.4,2.1-6.6,3.4l-0.3,0.2l-0.7-0.5l0.3-0.4c1.3-1.6,2.6-3.3,4-5.4l5.8-8.9l-0.8-1.6l-15.6,7.2l0.5,1.1
			l6.6-3.1c2.8-1.3,4.7-2.2,6.7-3.3l0.3-0.2l0.6,0.6l-0.2,0.4c-1.2,1.4-2.5,3.2-4,5.6L36.7-564.9z"/>
	</g>
	<g>
		<path class="st3" d="M58.7-561.1c0.7,0.7,1.8,2,2.7,3.4c1.3,2,1.8,3.4,1.7,4.9c-0.1,1.2-0.6,2.2-1.8,3c-1.5,1-3.4,0.9-5-0.4l0,0
			c0.6,1.7,0.5,4.2-1.7,5.7c-1.3,0.9-2.6,1-3.9,0.7c-1.7-0.4-3.3-1.8-4.9-4.3c-0.9-1.3-1.5-2.4-1.8-3.2L58.7-561.1z M46.5-550.2
			c0.2,0.4,0.5,1,1,1.7c1.3,2,3.3,3.4,5.5,1.9c2.1-1.4,1.7-3.7,0.3-5.9l-1.1-1.6L46.5-550.2z M53.8-555.1l1.2,1.8
			c1.4,2.1,3.3,2.6,4.7,1.6c1.8-1.2,1.6-3,0.3-5c-0.6-0.9-1-1.4-1.3-1.6L53.8-555.1z"/>
		<path class="st3" d="M51.7-543.2c-0.4,0-0.8,0-1.2-0.1c-1.8-0.4-3.5-1.9-5.2-4.5c-1-1.5-1.6-2.7-1.9-3.2l-0.2-0.4l15.6-10.4
			l0.3,0.3c0.8,0.8,1.9,2.1,2.8,3.4c1.4,2,1.9,3.6,1.7,5.2c-0.1,1.4-0.8,2.6-2.1,3.4c-1.4,0.9-3,1-4.6,0.2c0.3,1.7-0.2,3.8-2.2,5.1
			C53.8-543.5,52.7-543.2,51.7-543.2z M44.5-551.1c0.3,0.6,0.8,1.5,1.6,2.7c1.6,2.4,3.1,3.7,4.6,4.1c1.2,0.3,2.4,0,3.5-0.7
			c2-1.3,2.1-3.5,1.5-5.1l-0.1-0.4l0.6-0.4l0.3,0.2c1.5,1.1,3.2,1.2,4.5,0.3c1-0.7,1.6-1.6,1.6-2.6c0.1-1.4-0.3-2.7-1.6-4.6
			c-0.7-1.1-1.6-2.2-2.3-3L44.5-551.1z M51.2-545.5c-0.5,0-1-0.1-1.4-0.3c-1-0.4-1.9-1.3-2.7-2.5c-0.5-0.8-0.9-1.4-1-1.8l-0.2-0.4
			l6.5-4.3l1.4,2c0.8,1.2,1.2,2.4,1.2,3.5c0,1.3-0.6,2.3-1.7,3.1C52.7-545.7,51.9-545.5,51.2-545.5z M47.2-550.1
			c0.2,0.3,0.4,0.7,0.8,1.3c0.7,1,1.5,1.8,2.2,2.1c0.9,0.4,1.7,0.3,2.6-0.3c0.8-0.5,1.2-1.3,1.2-2.2c0-0.9-0.4-1.9-1.1-2.9l-0.8-1.2
			L47.2-550.1z M58.2-550.7c-1.3,0-2.6-0.8-3.6-2.3l-1.5-2.2l5.6-3.7l0.3,0.3c0.4,0.4,0.8,1,1.4,1.7c0.7,1.1,1.1,2.2,1.1,3.1
			c0,1.1-0.5,1.9-1.5,2.6C59.4-550.9,58.8-550.7,58.2-550.7z M54.5-554.9l0.9,1.4c1.2,1.7,2.7,2.3,4,1.5c0.7-0.5,1.1-1.1,1.1-1.8
			c0-0.7-0.3-1.6-0.9-2.5c-0.3-0.5-0.7-0.9-0.9-1.3L54.5-554.9z"/>
	</g>
	<g>
		<path class="st3" d="M55.5-534.7l6-4.9l4.5-11.1l1.7,2.1l-2.3,5.2c-0.6,1.4-1.1,2.5-1.8,3.8l0,0c1.2-0.4,2.6-0.6,4.1-0.9l5.5-1.1
			l1.7,2.1l-12,1.9l-6,4.9L55.5-534.7z"/>
		<path class="st3" d="M57-532.2l-2.1-2.6l6.3-5.1l4.8-11.7l2.4,3l-2.4,5.4c-0.5,1.1-0.9,2-1.3,2.9c0.8-0.2,1.6-0.4,2.5-0.6l6.5-1.3
			l2.4,3l-12.7,2L57-532.2z M56.2-534.6l0.9,1.1l5.7-4.7l11.2-1.7l-0.9-1.2l-5.9,1.2c-1.3,0.3-2.4,0.5-3.4,0.8l-0.3,0.1l-0.4-0.5
			l0.1-0.3c0.6-1.2,1.1-2.2,1.8-3.7l2.2-4.9l-1-1.2l-4.2,10.4L56.2-534.6z"/>
	</g>
	<g>
		<path class="st3" d="M80.8-533.3c0.9,0.5,2.2,1.5,3.4,2.6c1.7,1.6,2.6,2.9,2.8,4.4c0.2,1.2-0.1,2.3-1.1,3.4
			c-1.2,1.3-3.1,1.6-5,0.8l0,0c1,1.5,1.5,3.9-0.3,5.9c-1.1,1.1-2.3,1.6-3.6,1.6c-1.7,0-3.6-1-5.8-3c-1.2-1.1-2-2-2.5-2.6L80.8-533.3
			z M71.5-519.8c0.3,0.4,0.8,0.9,1.4,1.4c1.8,1.7,4,2.5,5.8,0.6c1.7-1.8,0.8-4-1.1-5.8l-1.4-1.3L71.5-519.8z M77.5-526.2l1.6,1.5
			c1.8,1.7,3.8,1.7,5,0.4c1.5-1.6,0.8-3.3-0.9-4.9c-0.8-0.7-1.3-1.1-1.6-1.3L77.5-526.2z"/>
		<path class="st3" d="M77-514c-1.8,0-3.8-1-6.1-3.2c-1.3-1.3-2.2-2.2-2.6-2.7l-0.3-0.3l12.7-13.7l0.3,0.2c1,0.6,2.3,1.6,3.5,2.7
			c1.8,1.7,2.7,3.1,2.9,4.7c0.3,1.4-0.2,2.7-1.2,3.8c-1.1,1.2-2.7,1.7-4.4,1.3c0.6,1.6,0.7,3.7-0.9,5.5C79.8-514.6,78.5-514,77-514z
			 M69.3-520.1c0.4,0.5,1.2,1.3,2.2,2.3c2.1,1.9,3.9,2.9,5.4,2.9c1.3,0,2.4-0.5,3.2-1.5c1.6-1.7,1.2-3.9,0.3-5.3l-0.2-0.3l0.5-0.5
			l0.4,0.1c1.7,0.7,3.4,0.4,4.4-0.7c0.8-0.9,1.1-1.9,1-3c-0.2-1.4-1-2.6-2.6-4.1c-1-0.9-2.1-1.8-3-2.4L69.3-520.1z M76.4-516.2
			c-0.2,0-0.4,0-0.7-0.1c-1-0.2-2.1-0.8-3.2-1.8c-0.7-0.6-1.2-1.1-1.4-1.5l-0.3-0.3l5.3-5.8l1.8,1.7c2.4,2.2,2.8,4.6,1.1,6.5
			C78.3-516.6,77.4-516.2,76.4-516.2z M72.2-519.8c0.2,0.3,0.6,0.6,1,1c0.9,0.8,1.8,1.4,2.7,1.5c0.9,0.2,1.7-0.1,2.5-0.9
			c1.8-2-0.1-4.2-1-5.1l-1.1-1L72.2-519.8z M82-522.9c-0.1,0-0.2,0-0.2,0c-1-0.1-2.1-0.6-3-1.5l-1.9-1.8l4.6-5l0.3,0.2
			c0.5,0.3,1,0.7,1.7,1.4c1,0.9,1.6,1.8,1.8,2.7c0.2,1,0,2-0.9,2.9C83.7-523.3,82.9-522.9,82-522.9z M78.2-526.2l1.2,1.1
			c0.8,0.7,1.6,1.1,2.4,1.2c0.7,0,1.4-0.2,1.8-0.7c0.6-0.6,0.8-1.3,0.6-2c-0.2-0.7-0.7-1.4-1.5-2.2c-0.5-0.4-0.9-0.8-1.2-1
			L78.2-526.2z"/>
	</g>
	<g>
		<path class="st3" d="M91.9-523.3c1.1,0.5,2.5,1.4,3.8,2.4c2,1.5,3,2.9,3.3,4.4c0.2,1.2-0.1,2.5-0.9,3.6c-1.5,1.9-3.6,2.3-5.5,1.6
			l0,0.1c0.8,1.2,0.7,2.8-0.1,4.5c-1.1,2.4-1.8,4-1.9,4.8l-1.9-1.5c0.1-0.6,0.7-2.1,1.7-4.2c1.1-2.3,0.9-3.7-0.8-5l-1.8-1.3
			l-4.8,6.3L81-509L91.9-523.3z M88.7-515.3l1.9,1.5c2,1.5,4.1,1.4,5.4-0.3c1.4-1.9,0.7-3.7-1.3-5.2c-0.9-0.7-1.6-1.1-2-1.2
			L88.7-515.3z"/>
		<path class="st3" d="M90.8-500.9l-2.8-2.2l0-0.3c0.1-0.6,0.6-1.8,1.7-4.3c1-2.1,0.8-3.2-0.6-4.4l-1.4-1l-4.8,6.3l-2.7-2l11.4-15
			l0.4,0.2c1.1,0.5,2.6,1.5,3.9,2.5c2.1,1.6,3.2,3,3.5,4.7c0.3,1.3-0.1,2.8-1,4c-1.3,1.7-3.1,2.4-5.1,2c0.4,1.2,0.2,2.5-0.5,4.1
			c-1,2.2-1.7,4-1.9,4.7L90.8-500.9z M89.1-503.5l1.1,0.8c0.3-0.9,0.9-2.3,1.7-4.2c0.8-1.7,0.8-3,0.1-4.1l-0.2-0.3l0.4-0.6l0.4,0
			c1.9,0.6,3.8,0.1,5-1.5c0.8-1,1.1-2.2,0.9-3.2c-0.3-1.4-1.2-2.6-3.1-4.1c-1.2-0.9-2.4-1.7-3.4-2.2l-10.3,13.6l1.1,0.8l4.8-6.3
			l2.2,1.6c1.9,1.5,2.1,3.1,0.9,5.6C90.3-506.5,89.3-504.4,89.1-503.5z M93.4-512.3c-1,0-2.1-0.4-3.1-1.2l-2.3-1.8l4.5-6l0.4,0.1
			c0.5,0.2,1.3,0.7,2.1,1.3c2.4,1.8,2.9,4,1.4,5.9c-0.7,0.9-1.7,1.5-2.8,1.5C93.6-512.3,93.5-512.3,93.4-512.3z M89.4-515.4l1.5,1.2
			c0.9,0.7,1.8,1,2.6,1c0.8,0,1.5-0.4,2-1.1c1.1-1.5,0.8-3-1.2-4.5c-0.6-0.5-1.2-0.8-1.5-1L89.4-515.4z"/>
	</g>
	<g>
		<path class="st3" d="M97.6-497.3l4.1-6.6l0.6-11.9l2.3,1.4l-0.5,5.6c-0.1,1.5-0.2,2.8-0.4,4.1l0,0c1.1-0.7,2.2-1.4,3.5-2.2
			l4.9-2.9l2.3,1.4l-10.7,5.7l-4.1,6.6L97.6-497.3z"/>
		<path class="st3" d="M99.8-495.3l-2.9-1.8l4.2-6.9l0.6-12.7l3.3,2l-0.5,5.9c-0.1,1.2-0.2,2.2-0.3,3.1c0.7-0.4,1.4-0.9,2.2-1.4
			l0.5-0.3l5.1-3.1l3.3,2l-11.3,6L99.8-495.3z M98.3-497.4l1.2,0.7l3.9-6.3l0.1-0.1l9.9-5.3l-1.3-0.8l-5.1,3.1
			c-1.1,0.7-2.1,1.3-3,1.9l-0.3,0.2l-0.6-0.3l0-0.3c0.2-1.3,0.3-2.5,0.4-4.1l0.4-5.3l-1.3-0.8l-0.6,11.2L98.3-497.4z"/>
	</g>
	<g>
		<path class="st3" d="M111.6-495.8l-4.2,4.3l-2.2-1.1l13.6-13.6l2.5,1.3l-2.5,19.1l-2.3-1.1l0.8-6L111.6-495.8z M117.7-494.8
			l0.7-5.5c0.2-1.2,0.4-2.3,0.6-3.4l0,0c-0.7,0.8-1.5,1.7-2.3,2.5l-3.9,3.9L117.7-494.8z"/>
		<path class="st3" d="M119.2-485.1l-3.2-1.6l0.8-6l-5.1-2.5l-4.2,4.3l-3.1-1.6l14.4-14.3l3.2,1.6L119.2-485.1z M117.1-487.2
			l1.3,0.6l2.4-18l-1.9-0.9L106-492.7l1.2,0.6l4.2-4.3l6.4,3.2L117.1-487.2z M118.2-494l-6.2-3.1l4.4-4.4c0.7-0.7,1.4-1.5,2.3-2.5
			l0.3-0.3l0.7,0.3l-0.1,0.6c-0.2,1-0.4,2-0.6,3.2L118.2-494z M113.7-497.4l3.7,1.8l0.6-4.8c0.1-0.6,0.2-1.1,0.3-1.7
			c-0.4,0.4-0.8,0.8-1.1,1.2L113.7-497.4z"/>
	</g>
	<g>
		<path class="st3" d="M123.4-483.9l6.1-17.1l2.4,0.9l2.4,10.6c0.6,2.5,0.9,4.6,1.1,6.7l0.1,0c0.6-2.4,1.3-4.5,2.3-7.1l2.6-7.2
			l2.1,0.7l-6.1,17.1l-2.2-0.8l-2.3-10.6c-0.5-2.3-1-4.7-1.2-6.9l-0.1,0c-0.6,2.2-1.3,4.3-2.4,7.1l-2.6,7.3L123.4-483.9z"/>
		<path class="st3" d="M136.5-478.7l-3-1.1l-2.4-10.9c-0.4-1.8-0.7-3.4-0.9-4.8c-0.5,1.5-1,3.1-1.7,5.1l-2.8,7.8l-3-1.1l6.5-18.1
			l3.1,1.1l2.4,10.9c0.3,1.5,0.6,3,0.8,4.4c0.5-1.6,1-3.2,1.6-4.9l2.7-7.6l3,1.1L136.5-478.7z M134.4-480.5l1.5,0.5l5.8-16.2
			l-1.1-0.4l-2.4,6.7c-0.9,2.5-1.6,4.7-2.3,7.1l-0.1,0.3l-0.8,0.1l-0.1-0.5c-0.2-2.1-0.5-4.2-1.1-6.6l-2.3-10.4l-1.7-0.6l-5.8,16.2
			l1.1,0.4l2.5-6.9c1-2.9,1.7-4.9,2.3-7.1l0.1-0.4l0.8,0l0.1,0.4c0.2,1.9,0.5,4,1.1,6.8L134.4-480.5z"/>
	</g>
	<g>
		<path class="st3" d="M146.5-495.4l2.3,0.6l-3.9,15.8l7.6,1.9l-0.5,1.9l-9.8-2.4L146.5-495.4z"/>
		<path class="st3" d="M152.4-474.7l-10.8-2.6l4.6-18.6l3.3,0.8l-3.9,15.8l7.6,1.9L152.4-474.7z M142.8-478l8.9,2.2l0.2-0.9
			l-7.6-1.9l3.9-15.8l-1.3-0.3L142.8-478z"/>
	</g>
	<g>
		<path class="st3" d="M160.5-492.2l-1.5,10.7c-0.6,4,1,6,3.4,6.3c2.7,0.4,4.6-1.1,5.2-5.1l1.5-10.7l2.4,0.3l-1.5,10.5
			c-0.8,5.5-4,7.4-7.9,6.8c-3.7-0.5-6.2-3-5.4-8.6l1.5-10.6L160.5-492.2z"/>
		<path class="st3" d="M163.3-472.7c-0.4,0-0.9,0-1.4-0.1c-2.1-0.3-3.7-1.2-4.7-2.6c-1.1-1.6-1.5-3.8-1.1-6.6l1.6-11.1l3.3,0.5
			l-1.6,11.2c-0.3,1.8-0.1,3.2,0.5,4.2c0.5,0.9,1.3,1.4,2.4,1.6c1.2,0.2,2.2-0.1,3-0.8c0.8-0.8,1.4-2.1,1.7-3.9l1.6-11.2l3.3,0.5
			l-1.6,11c-0.4,2.8-1.4,4.8-3,6C166.3-473.2,164.9-472.7,163.3-472.7z M158.6-492l-1.5,10.1c-0.4,2.5-0.1,4.5,0.9,5.9
			c0.8,1.2,2.2,1.9,4,2.2c1.9,0.3,3.5-0.1,4.8-1c1.4-1.1,2.3-2.9,2.6-5.4l1.4-10l-1.4-0.2l-1.5,10.2c-0.3,2-1,3.6-2,4.5
			c-1,0.9-2.3,1.3-3.8,1c-1.4-0.2-2.5-0.9-3.2-2c-0.7-1.2-0.9-2.8-0.6-4.9l1.5-10.2L158.6-492z"/>
	</g>
	<g>
		<path class="st3" d="M175.1-472.1l0.5-18.2l2.6,0.1l5.6,9.4c1.3,2.2,2.3,4.1,3.1,6l0.1,0c-0.2-2.4-0.1-4.6-0.1-7.5l0.2-7.6
			l2.2,0.1l-0.5,18.2l-2.4-0.1l-5.5-9.4c-1.2-2.1-2.4-4.2-3.2-6.2l-0.1,0c0.1,2.3,0.1,4.5,0,7.5l-0.2,7.8L175.1-472.1z"/>
		<path class="st3" d="M189.3-471.2l-3.2-0.1l-5.7-9.6c-0.9-1.6-1.7-3-2.3-4.2c0,1.6,0,3.3-0.1,5.4l-0.2,8.3l-3.2-0.1l0.5-19.2
			l3.3,0.1l5.7,9.6c0.8,1.4,1.5,2.6,2.1,3.9c0-1.7,0-3.3,0-5.2l0.2-8.1l3.2,0.1L189.3-471.2z M186.7-472.3l1.6,0l0.4-17.2l-1.2,0
			l-0.2,7.1c-0.1,2.7-0.1,4.9,0.1,7.4l0,0.3l-0.8,0.4l-0.3-0.4c-0.8-1.9-1.8-3.8-3.1-5.9l-5.5-9.1l-1.8,0l-0.4,17.2l1.2,0l0.2-7.3
			c0.1-3,0.1-5.2,0-7.5l0-0.4l0.8-0.2l0.3,0.4c0.7,1.7,1.8,3.7,3.2,6.1L186.7-472.3z"/>
	</g>
	<g>
		<path class="st3" d="M193.5-489.8c1.4-0.3,3.1-0.7,4.9-0.8c3.4-0.3,5.8,0.2,7.5,1.6c1.8,1.3,2.9,3.3,3.2,6.3c0.3,3-0.4,5.5-2,7.3
			c-1.5,1.9-4.2,3-7.8,3.4c-1.7,0.2-3.1,0.2-4.3,0.2L193.5-489.8z M197.3-474c0.6,0.1,1.5,0,2.4-0.1c5-0.5,7.5-3.5,7-8.4
			c-0.4-4.3-3-6.8-8-6.3c-1.2,0.1-2.1,0.3-2.7,0.5L197.3-474z"/>
		<path class="st3" d="M195.7-471.5c-0.2,0-0.4,0-0.6,0l-0.4,0l-1.7-18.7l0.4-0.1c1.7-0.4,3.3-0.7,5-0.9c3.4-0.3,6,0.2,7.9,1.7
			c2,1.5,3.1,3.7,3.4,6.6c0.3,3.1-0.4,5.7-2.1,7.7c-1.6,2-4.4,3.2-8.1,3.5C198.1-471.5,196.8-471.5,195.7-471.5z M195.6-472.5
			c1.1,0,2.4-0.1,3.8-0.2c3.4-0.3,6-1.4,7.4-3.2c1.5-1.7,2.1-4.1,1.8-6.9c-0.2-2.7-1.2-4.6-3-5.9c-1.7-1.3-4-1.8-7.2-1.5
			c-1.5,0.1-3,0.4-4.4,0.7L195.6-472.5z M197.9-473.5c-0.2,0-0.4,0-0.6,0l-0.4,0l-1.4-15.1l0.4-0.1c0.5-0.2,1.4-0.4,2.8-0.5
			c2.6-0.2,4.6,0.3,6.1,1.5c1.4,1.2,2.2,2.9,2.4,5.3c0.2,2.6-0.3,4.7-1.6,6.2c-1.3,1.6-3.3,2.5-5.9,2.7
			C198.9-473.5,198.3-473.5,197.9-473.5z M197.8-474.5c0.6,0,1.3-0.1,1.9-0.1c2.3-0.2,4.1-1,5.2-2.4c1.1-1.3,1.6-3.2,1.3-5.5
			c-0.2-2-0.9-3.6-2.1-4.6c-1.3-1.1-3.1-1.5-5.4-1.3c-1,0.1-1.7,0.2-2.2,0.4L197.8-474.5z"/>
	</g>
	<g>
		<path class="st3" d="M222.6-484.5l-6.9,1.4l1.3,6.4l7.7-1.6l0.4,1.9l-10,2l-3.6-17.8l9.6-1.9l0.4,1.9l-7.3,1.5l1.1,5.6l6.9-1.4
			L222.6-484.5z"/>
		<path class="st3" d="M214.7-473.7l-3.8-18.8l10.6-2.1l0.6,2.9l-7.3,1.5l0.9,4.7l6.9-1.4l0.6,2.9l-6.9,1.4l1.1,5.5l7.7-1.6l0.6,2.9
			L214.7-473.7z M212.1-491.7l3.4,16.9l9.1-1.8l-0.2-1l-7.7,1.6l-1.5-7.4l6.9-1.4l-0.2-0.9l-6.9,1.4l-1.3-6.6l7.3-1.5l-0.2-1
			L212.1-491.7z"/>
	</g>
	<g>
		<path class="st3" d="M236.5-488.4l-6.8,2l1.9,6.3l7.6-2.3l0.6,1.9l-9.8,2.9l-5.2-17.4l9.4-2.8l0.6,1.9l-7.2,2.1l1.6,5.5l6.8-2
			L236.5-488.4z"/>
		<path class="st3" d="M229.6-476.9l-5.5-18.4l10.4-3.1l0.8,2.8l-7.2,2.1l1.4,4.6l6.8-2l0.8,2.8l-6.8,2l1.6,5.3l7.6-2.3l0.8,2.8
			L229.6-476.9z M225.4-494.6l4.9,16.5l8.9-2.6l-0.3-0.9l-7.6,2.3l-2.2-7.2l6.8-2l-0.3-0.9l-6.8,2l-1.9-6.5l7.2-2.1l-0.3-0.9
			L225.4-494.6z"/>
	</g>
	<g>
		<path class="st3" d="M244.6-482.1l-7-16.8l2.4-1l8.9,6.2c2.1,1.4,3.8,2.8,5.3,4.2l0,0c-1.1-2.2-2-4.2-3.1-6.8l-2.9-7l2-0.9l7,16.8
			l-2.2,0.9l-8.9-6.3c-2-1.4-3.9-2.8-5.5-4.3l-0.1,0.1c1,2.1,1.9,4.1,3.1,6.9l3,7.2L244.6-482.1z"/>
		<path class="st3" d="M244.3-481.5l-7.4-17.7l3.1-1.3l9.2,6.4c1.3,0.9,2.5,1.8,3.5,2.7c-0.7-1.5-1.4-3-2.1-4.7l-3.1-7.5l3-1.2
			l7.4,17.7l-2.9,1.2l-9.1-6.5c-1.5-1.1-2.8-2-3.9-2.9c0.7,1.4,1.3,3,2.2,4.9l3.2,7.6L244.3-481.5z M238.2-498.6l6.6,15.9l1.1-0.5
			l-2.8-6.7c-1.2-2.8-2.1-4.8-3.1-6.8l-0.2-0.3l0.6-0.5l0.4,0.2c1.4,1.3,3.1,2.6,5.4,4.3l8.7,6.1l1.5-0.6l-6.6-15.9l-1.1,0.5
			l2.7,6.6c1,2.4,1.9,4.5,3.1,6.8l0.2,0.3l-0.6,0.7l-0.4-0.3c-1.5-1.4-3.2-2.8-5.2-4.2l-8.7-6.1L238.2-498.6z"/>
	</g>
	<g>
		<path class="st3" d="M261.3-491.1c-0.5-0.9-0.2-1.8,0.7-2.3s1.7-0.1,2.2,0.8c0.4,0.9,0.2,1.8-0.7,2.3
			C262.6-489.9,261.7-490.2,261.3-491.1z"/>
		<path class="st3" d="M262.7-489.6c-0.2,0-0.5,0-0.7-0.1c-0.5-0.2-0.9-0.6-1.2-1.1l0,0c-0.3-0.5-0.3-1.1-0.2-1.7
			c0.2-0.5,0.5-1,1.1-1.3s1.1-0.3,1.6-0.1c0.5,0.2,1,0.6,1.2,1.1c0.6,1.2,0.2,2.4-0.9,2.9C263.4-489.7,263.1-489.6,262.7-489.6z
			 M262.7-493c-0.2,0-0.3,0-0.5,0.1c-0.3,0.1-0.5,0.4-0.6,0.7c-0.1,0.3,0,0.6,0.1,0.9l0,0c0.2,0.3,0.4,0.5,0.7,0.6
			c0.3,0.1,0.6,0.1,0.8-0.1c0.6-0.3,0.8-0.9,0.4-1.6c-0.2-0.3-0.4-0.5-0.7-0.6C262.9-493,262.8-493,262.7-493z"/>
	</g>
	<g>
		<path class="st3" d="M279.5-500.7c-0.5,0.8-1.8,2.1-3.6,3.3c-4.4,2.7-9.4,1.9-12.5-3.1c-3-4.9-1.7-10.2,3.1-13.1
			c1.9-1.2,3.4-1.5,4.1-1.6l0.5,1.9c-1,0.1-2.2,0.5-3.5,1.3c-3.6,2.2-4.6,6-2.1,10.1c2.3,3.8,6,4.9,9.8,2.6c1.2-0.7,2.3-1.8,2.9-2.7
			L279.5-500.7z"/>
		<path class="st3" d="M270.8-495.4c-3.1,0-5.9-1.7-7.9-4.9c-1.5-2.5-2-5.1-1.4-7.7c0.6-2.5,2.2-4.6,4.7-6.2
			c2.3-1.4,3.9-1.6,4.3-1.6l0.4,0l0.8,2.9l-0.6,0.1c-1,0.1-2.2,0.5-3.3,1.2c-1.7,1-2.8,2.4-3.1,4.1c-0.4,1.7,0,3.5,1.2,5.4
			c1.1,1.8,2.5,2.9,4.1,3.4c1.6,0.4,3.3,0.1,5-0.9c1.1-0.7,2.2-1.7,2.7-2.5l0.3-0.5l2.1,2l-0.2,0.3c-0.5,0.8-1.8,2.2-3.8,3.4
			C274.4-495.9,272.6-495.4,270.8-495.4z M270.2-514.7c-0.6,0.1-1.9,0.4-3.5,1.4c-2.2,1.4-3.7,3.3-4.2,5.5c-0.5,2.2-0.1,4.6,1.3,6.9
			c2.8,4.6,7.3,5.7,11.8,3c1.6-1,2.7-2,3.3-2.8l-0.7-0.6c-0.7,0.8-1.6,1.7-2.7,2.3c-2,1.2-4,1.6-5.8,1.1c-1.8-0.5-3.4-1.8-4.6-3.8
			c-1.3-2.1-1.7-4.2-1.3-6.1c0.4-1.9,1.7-3.5,3.6-4.7c1-0.6,2.1-1.1,3.2-1.3L270.2-514.7z"/>
	</g>
	<g>
		<path class="st3" d="M290.1-519.6c3.9,4.9,2.9,9.9-0.8,12.8c-3.8,3-8.7,2.1-12.1-2.3c-3.6-4.6-3-9.7,0.8-12.7
			C281.9-524.9,286.8-523.9,290.1-519.6z M279.2-510.7c2.4,3.1,6.2,4.5,9.1,2.2c2.9-2.3,2.5-6.3-0.1-9.5c-2.2-2.9-6-4.7-9.1-2.3
			C276-517.9,276.7-513.9,279.2-510.7z"/>
		<path class="st3" d="M284.5-504.6c-0.5,0-1,0-1.4-0.1c-2.3-0.4-4.5-1.8-6.2-4c-1.8-2.3-2.7-4.8-2.5-7.3c0.2-2.4,1.4-4.6,3.4-6.1
			c2-1.6,4.3-2.2,6.7-1.7c2.3,0.4,4.4,1.8,6.1,4l0,0c4.3,5.5,2.7,10.7-0.9,13.5C288.1-505.3,286.3-504.6,284.5-504.6z M282.9-523.1
			c-1.6,0-3.2,0.6-4.6,1.7c-1.8,1.4-2.8,3.3-3,5.4c-0.2,2.2,0.6,4.5,2.3,6.6c1.6,2,3.5,3.3,5.6,3.7c2.1,0.4,4.1-0.1,5.8-1.5
			c3.8-3,4.1-7.7,0.7-12.1l0,0c-1.6-2-3.5-3.3-5.5-3.7C283.7-523.1,283.3-523.1,282.9-523.1z M285.1-506.9c-2.4,0-4.8-1.5-6.4-3.5
			l0,0c-1.3-1.7-2.1-3.6-2.2-5.3c-0.1-2,0.7-3.7,2.2-4.9c1.6-1.2,3.4-1.5,5.3-0.9c1.7,0.5,3.2,1.7,4.5,3.3c2.9,3.7,2.9,8,0,10.2
			C287.5-507.2,286.3-506.9,285.1-506.9z M279.6-511c2,2.6,5.5,4.4,8.4,2.2c2.9-2.3,2-6.1-0.1-8.8c-1.1-1.4-2.6-2.5-4-2.9
			c-1.1-0.4-2.8-0.5-4.4,0.8c-1.3,1-1.9,2.4-1.8,4.1C277.6-514.3,278.4-512.6,279.6-511L279.6-511z"/>
	</g>
	<g>
		<path class="st3" d="M304.9-532.5c-1.9-1.7-4.2-3.7-5.8-5.3l-0.1,0.1c1.1,1.9,2.2,4.1,3.3,6.5l4.1,8.5l-1.2,1.3l-8.3-4
			c-2.4-1.2-4.6-2.3-6.5-3.4l0,0c1.6,1.6,3.7,3.9,5.5,5.9l5.2,5.8l-1.6,1.6l-12.1-13.6l2.1-2.1l8.5,3.9c2.1,1,4,2,5.7,3l0.1-0.1
			c-1-1.6-2-3.5-3-5.7l-4-8.5l2.1-2.1l13.8,11.9l-1.6,1.6L304.9-532.5z"/>
		<path class="st3" d="M299.6-514.8l-12.8-14.4l2.7-2.7l8.8,4.1c1.7,0.8,3,1.5,4.2,2.1c-0.7-1.2-1.4-2.5-2.2-4.2l-4.2-8.8l2.7-2.7
			l14.6,12.6l-2.3,2.4l-6.4-5.6l0.3-0.4l-0.4,0.3c-1.1-1-2.5-2.2-3.7-3.3c0.6,1.2,1.3,2.5,2,4l4.2,8.8l-1.7,1.8l-8.6-4.1
			c-1.5-0.7-2.7-1.3-3.8-1.9c1.1,1.1,2.2,2.4,3.3,3.6l5.6,6.2L299.6-514.8z M288.2-529.2l11.5,12.9l0.9-0.9l-4.9-5.5
			c-1.9-2.1-3.9-4.3-5.5-5.9l-0.3-0.4l0.6-0.6l0.4,0.2c1.7,1,3.7,2.1,6.5,3.4l7.9,3.8l0.8-0.8L302-531c-1.2-2.5-2.3-4.6-3.3-6.4
			l-0.2-0.3l0.6-0.6l0.4,0.3c1.6,1.6,3.9,3.6,5.7,5.2l-0.3,0.4l0.3-0.4l5.7,5l0.9-0.9l-13-11.3l-1.5,1.6l3.9,8.2
			c1.2,2.4,2.1,4.2,3,5.6l0.2,0.3l-0.5,0.6l-0.4-0.1c-1.5-0.9-3.2-1.8-5.6-3l-8.1-3.8L288.2-529.2z"/>
	</g>
</g>
<g>
	<path class="st4" d="M128.6-728.8c13.4,0,23.6,2.6,30.6,7.7c7,5.1,10.7,11.9,11,20.3c0.1,8-2.8,16.5-8.8,25.6
		c-6,9-14.7,17.4-26,24.9c0.4,0,0.7,0,0.8,0c18.9,0,30.8,6.8,35.6,20.5c4.4,11.7,2.8,25.5-5,41.2c-7.5,15.5-18.2,27.3-32.3,35.4
		c-9.9,5.7-20.2,8.5-30.8,8.5c-12,0-22.2-3-30.6-9c-8.4-6-12.6-13.5-12.6-22.5c0-7.2,2.7-13.3,8-18.3c5.3-5,12.1-8.9,20.4-11.7
		c-0.1-14.4-0.2-30.8-0.2-49.3c0-19.3,1.1-35.7,3.3-49.1c-0.4,0.6-1,1.3-1.7,2.2c-0.7,0.9-1.2,1.6-1.7,2.2c-0.4,0.6-0.9,1.2-1.4,1.9
		c-0.6,0.7-1,1.2-1.4,1.7s-0.9,0.8-1.3,1.1c-0.5,0.3-0.9,0.6-1.3,0.7c-0.4,0.1-0.8,0.2-1.2,0.2c-2.8,0-3-2.3-0.8-6.8
		c2.6-5.5,7.2-10.8,13.9-15.7c1.1-3,2.1-4.6,2.9-4.6c0.5,0,0.8,0.6,0.8,1.9C107.9-725.8,117.9-728.8,128.6-728.8z M128.8-724.4
		c-12.3,0-22.7,4.4-31.3,13.2c-2.6,18.4-3.9,37.1-3.9,56.3c0,16.1-0.1,31.9-0.4,47.2c4.8-1.4,9.6-2.3,14.3-2.7
		c4.7-0.4,8.5-0.4,11.3,0c2.8,0.4,4.2,1.2,4.2,2.3c0,0.7-1.3,1.3-4,1.8c-2.7,0.5-6.7,1.1-12,2c-5.3,0.8-9.9,1.7-13.8,2.7
		c-0.7,26.9-1.4,40.4-2.3,40.4c-1,0-1.7-13-2.1-39.1c-16.8,5-25.3,13.1-25.3,24.4c0,6.9,4,13,12.1,18.2c8.1,5.2,17.6,7.9,28.5,7.9
		c14.5,0,28.3-6.9,41.4-20.7c11.5-12,18.5-24.8,21.1-38.5c2.9-14.8-0.8-25-11-30.8c-5.1-2.9-11.6-4.3-19.5-4.3c-1.9,0-4,0.2-6.3,0.7
		c-2.3,0.5-4.3,1-6.1,1.7c-1.8,0.6-3.5,1.1-5.2,1.6c-1.7,0.4-2.9,0.5-3.8,0.3c-0.9-0.2-1.3-0.8-1.3-1.8c0-1.4,1.2-2.8,3.6-4.1
		c2.4-1.4,5.4-2.4,9-3.1c11.3-7.3,20.5-15.7,27.5-25.3s10.6-18.4,10.6-26.5c0.1-7.2-2.7-12.9-8.6-17.2
		C149.7-722.3,140.8-724.4,128.8-724.4z"/>
	<path class="st4" d="M234.9-712.4c12.7,0,19.3,8.6,19.9,25.9c0.4,16.7-4.4,36.2-14.5,58.6c-9.2,20.6-19,34.5-29.2,41.8
		c-0.4,0.3-0.8,0.5-1,0.6c4,13.5,11.3,23.2,21.9,29c8.6,4.6,17.9,7.3,28,8.2c10.1,0.9,20.5,0.4,30.9-1.6c10.5-1.9,21.6-4.4,33.2-7.3
		c11.7-3,24.2-5.8,37.6-8.5c13.4-2.7,27.1-4.7,41.1-5.9c14-1.2,29.6-0.7,46.7,1.6c17.1,2.3,34.4,6.7,51.8,13.1
		c2.6,1,3.6,2.5,2.9,4.6c-0.8,2.2-2.9,2.8-6.2,1.7c-17.5-6.3-34.9-10.7-52.1-12.9s-32.7-2.9-46.5-1.9c-13.8,1-27.3,2.8-40.5,5.4
		c-13.2,2.6-25.5,5.2-36.9,8.1c-11.5,2.8-22.4,5.1-32.8,6.9c-10.4,1.8-20.7,2.1-30.9,1c-10.2-1.1-19.8-4-28.8-8.7
		c-10.6-5.7-18.7-15.5-24.3-29.6c-5.6-14.1-8.4-30.5-8.4-49.3c0.4-13.8,2.2-26.7,5.3-38.8c3.1-12.1,7.6-22.1,13.4-30
		C221.3-708.4,227.8-712.4,234.9-712.4z M234.7-706.6c-5.5,0-10.7,3.6-15.4,10.9s-8.5,16.6-11.3,28c-2.8,11.5-4.2,23.5-4.3,36
		c-0.1,16.8,1.7,31.1,5.4,42.8c9.4-7,18.5-20.8,27.3-41.4c9.5-22.2,13.9-41,13.2-56.3C249.1-699.9,244.1-706.6,234.7-706.6z"/>
</g>
<path class="st5" d="M338.8-568.1c30.7-55.3,25.6-124.4-22.5-177.6c-60.8-67.3-165.1-77.2-229.2-25.6"/>
<g>
	<g>
		<path d="M-1005.8-773.7l16.2,9.5l-1.7,1.8l-8.1-4.9c-2-1.2-3.9-2.5-5.4-3.5l0,0c1.1,1.5,2.2,3.4,3.4,5.5l4.8,8.2l-1.7,1.7
			l-8.1-4.9c-1.9-1.2-3.8-2.3-5.3-3.5l0,0c1.2,1.7,2.2,3.5,3.4,5.5l4.8,8.2l-1.7,1.7l-9.3-16.5l1.7-1.7l8.3,5c2,1.2,3.6,2.2,5.1,3.3
			l0,0c-1.1-1.5-2-3-3.2-5.2l-4.9-8.5L-1005.8-773.7z"/>
		<path d="M-1019.9-744.9l4.3-5.6l-5.2-4l-4.8,6.2l-1.6-1.2l6.3-8.1l14.4,11.2l-6,7.8l-1.6-1.2l4.6-5.9l-4.5-3.5l-4.3,5.6
			L-1019.9-744.9z"/>
		<path d="M-1014.9-735.7c-0.4,1-1.1,2.4-2,3.8c-1.3,2-2.4,3-3.8,3.5c-1.1,0.4-2.3,0.3-3.5-0.4c-1.5-0.9-2.2-2.7-1.7-4.7l0,0
			c-1.3,1.2-3.6,2.2-5.9,0.7c-1.3-0.8-2-2-2.3-3.3c-0.3-1.7,0.3-3.7,1.9-6.2c0.9-1.4,1.6-2.4,2.1-3L-1014.9-735.7z M-1029.8-742.4
			c-0.3,0.3-0.7,0.9-1.1,1.6c-1.3,2.1-1.8,4.4,0.5,5.8c2.1,1.3,4.1,0.1,5.5-2.1l1-1.6L-1029.8-742.4z M-1022.4-737.7l-1.1,1.8
			c-1.3,2.1-1,4,0.5,5c1.8,1.1,3.4,0.2,4.6-1.8c0.6-0.9,0.8-1.5,1-1.8L-1022.4-737.7z"/>
		<path d="M-1025.6-717.5c-0.4,1.4-0.9,3-1.7,4.7c-1.4,3.1-3,5-5,5.8c-2,0.9-4.3,0.9-7-0.3c-2.7-1.2-4.6-3-5.4-5.2
			c-0.9-2.2-0.6-5.2,0.8-8.4c0.7-1.5,1.3-2.8,1.9-3.8L-1025.6-717.5z M-1041.3-721.8c-0.3,0.5-0.7,1.3-1.1,2.1
			c-2,4.6-0.5,8.2,4,10.2c3.9,1.7,7.4,0.6,9.4-3.9c0.5-1.1,0.8-2,0.9-2.6L-1041.3-721.8z"/>
		<path d="M-1044.4-694.6l2.1-6.7l-6.3-2l-2.4,7.5l-1.9-0.6l3.1-9.8l17.3,5.5l-3,9.4l-1.9-0.6l2.3-7.1l-5.5-1.7l-2.1,6.7
			L-1044.4-694.6z"/>
		<path d="M-1054.9-687.3l19-2.1l-0.5,2.5l-9.4,0.9c-2.6,0.3-4.9,0.5-7.1,0.5l0,0.1c2,0.9,4,2.1,6.2,3.4l8.2,4.9l-0.5,2.5
			l-16.5-10.1L-1054.9-687.3z"/>
		<path d="M-1058-676.8l18.5,9.9l-0.2,1.8l-18.5-9.9L-1058-676.8z"/>
		<path d="M-1040.6-663c0.2,1.4,0.3,3.1,0.2,5c-0.1,3.4-1,5.8-2.5,7.3c-1.5,1.6-3.7,2.5-6.6,2.4c-3-0.1-5.4-1.1-7-2.8
			c-1.6-1.8-2.5-4.6-2.4-8.1c0.1-1.7,0.2-3.1,0.3-4.3L-1040.6-663z M-1056.7-661.1c-0.1,0.6-0.2,1.5-0.2,2.4c-0.2,5,2.6,7.8,7.5,8
			c4.3,0.2,7.1-2.2,7.2-7.2c0-1.2,0-2.1-0.2-2.8L-1056.7-661.1z"/>
		<path d="M-1049.5-634.8l-0.5-7.1l-6.5,0.5l0.6,7.9l-2,0.1l-0.7-10.2l18.2-1.3l0.7,9.8l-2,0.1l-0.5-7.5l-5.7,0.4l0.5,7.1
			L-1049.5-634.8z"/>
		<path d="M-1054.6-629.2c-0.5,1.1-0.8,2.8-0.5,4.3c0.4,2.4,1.9,3.6,3.7,3.3c1.7-0.3,2.5-1.4,3-4c0.6-3.1,1.8-5.2,4.3-5.6
			c2.8-0.5,5.3,1.5,5.8,5c0.3,1.8,0.1,3.2-0.2,4.1l-2-0.3c0.2-0.6,0.6-1.9,0.3-3.6c-0.4-2.5-2-3.1-3.2-2.9c-1.7,0.3-2.3,1.5-2.9,4.1
			c-0.7,3.2-1.9,5-4.5,5.4c-2.8,0.5-5.5-1.2-6.2-5.4c-0.3-1.7-0.1-3.7,0.4-4.8L-1054.6-629.2z"/>
		<path d="M-1036.4-615.6l-17.7,4.2l-0.5-2.3l17.7-4.2L-1036.4-615.6z"/>
		<path d="M-1047.6-592.7c-0.7-0.9-1.9-2.7-2.7-5c-0.9-2.6-0.9-5,0.2-7.2c1-2,3-3.6,5.7-4.5c5.2-1.7,10.1,0.7,12,6.5
			c0.7,2,0.7,3.7,0.6,4.6l-2,0.1c0.1-1.1,0.1-2.3-0.5-4.1c-1.4-4.2-4.9-6.1-9.2-4.7c-4.4,1.4-6.1,4.9-4.8,8.9c0.5,1.5,1,2.4,1.4,2.8
			l5.2-1.7l-1.1-3.5l1.8-0.6l1.9,5.7L-1047.6-592.7z"/>
		<path d="M-1046.2-587.1l16.5-7.7l1.1,2.3l-5.9,9.2c-1.4,2.1-2.7,3.9-4,5.4l0,0c2.1-1.2,4.1-2.2,6.7-3.4l6.9-3.2l0.9,2l-16.5,7.7
			l-1-2.2l5.9-9.1c1.3-2,2.7-4,4.1-5.6l-0.1-0.1c-2,1.1-4,2.1-6.7,3.3l-7.1,3.3L-1046.2-587.1z"/>
		<path d="M-1018.9-573c0.7,0.7,1.8,2,2.7,3.4c1.3,2,1.8,3.4,1.7,4.9c-0.1,1.2-0.6,2.2-1.8,3c-1.5,1-3.4,0.9-5-0.4l0,0
			c0.6,1.7,0.5,4.2-1.7,5.7c-1.3,0.9-2.6,1-3.9,0.7c-1.7-0.4-3.3-1.8-4.9-4.3c-0.9-1.3-1.5-2.4-1.8-3.2L-1018.9-573z M-1031.1-562.1
			c0.2,0.4,0.5,1,1,1.7c1.3,2,3.3,3.4,5.5,1.9c2.1-1.4,1.7-3.7,0.3-5.9l-1.1-1.6L-1031.1-562.1z M-1023.8-566.9l1.2,1.8
			c1.4,2.1,3.3,2.6,4.7,1.6c1.8-1.2,1.6-3,0.3-5c-0.6-0.9-1-1.4-1.3-1.6L-1023.8-566.9z"/>
		<path d="M-1022.1-546.6l6-4.9l4.5-11.1l1.7,2.1l-2.3,5.2c-0.6,1.4-1.1,2.5-1.8,3.8l0,0c1.2-0.4,2.6-0.6,4.1-0.9l5.5-1.1l1.7,2.1
			l-12,1.9l-6,4.9L-1022.1-546.6z"/>
		<path d="M-996.8-545.1c0.9,0.5,2.2,1.5,3.4,2.6c1.7,1.6,2.6,2.9,2.8,4.4c0.2,1.2-0.1,2.3-1.1,3.4c-1.2,1.3-3.1,1.6-5,0.8l0,0
			c1,1.5,1.5,3.9-0.3,5.9c-1.1,1.1-2.3,1.6-3.6,1.6c-1.7,0-3.6-1-5.8-3c-1.2-1.1-2-2-2.5-2.6L-996.8-545.1z M-1006.1-531.7
			c0.3,0.4,0.8,0.9,1.4,1.4c1.8,1.7,4,2.5,5.8,0.6c1.7-1.8,0.8-4-1.1-5.8l-1.4-1.3L-1006.1-531.7z M-1000.2-538.1l1.6,1.5
			c1.8,1.7,3.8,1.7,5,0.4c1.5-1.6,0.8-3.3-0.9-4.9c-0.8-0.7-1.3-1.1-1.6-1.3L-1000.2-538.1z"/>
		<path d="M-985.7-535.2c1.1,0.5,2.5,1.4,3.8,2.4c2,1.5,3,2.9,3.3,4.4c0.2,1.2-0.1,2.5-0.9,3.6c-1.5,1.9-3.6,2.3-5.5,1.6l0,0.1
			c0.8,1.2,0.7,2.8-0.1,4.5c-1.1,2.4-1.8,4-1.9,4.8l-1.9-1.5c0.1-0.6,0.7-2.1,1.7-4.2c1.1-2.3,0.9-3.7-0.8-5l-1.8-1.3l-4.8,6.3
			l-1.9-1.4L-985.7-535.2z M-988.9-527.1l1.9,1.5c2,1.5,4.1,1.4,5.4-0.3c1.4-1.9,0.7-3.7-1.3-5.2c-0.9-0.7-1.6-1.1-2-1.2
			L-988.9-527.1z"/>
		<path d="M-980-509.1l4.1-6.6l0.6-11.9l2.3,1.4l-0.5,5.6c-0.1,1.5-0.2,2.8-0.4,4.1l0,0c1.1-0.7,2.2-1.4,3.5-2.2l4.9-2.9l2.3,1.4
			l-10.7,5.7l-4.1,6.6L-980-509.1z"/>
		<path d="M-966-507.7l-4.2,4.3l-2.2-1.1l13.6-13.6l2.5,1.3l-2.5,19.1l-2.3-1.1l0.8-6L-966-507.7z M-959.9-506.7l0.7-5.5
			c0.2-1.2,0.4-2.3,0.6-3.4l0,0c-0.7,0.8-1.5,1.7-2.3,2.5l-3.9,3.9L-959.9-506.7z"/>
		<path d="M-954.3-495.8l6.1-17.1l2.4,0.9l2.4,10.6c0.6,2.5,0.9,4.6,1.1,6.7l0.1,0c0.6-2.4,1.3-4.5,2.3-7.1l2.6-7.2l2.1,0.7
			l-6.1,17.1l-2.2-0.8l-2.3-10.6c-0.5-2.3-1-4.7-1.2-6.9l-0.1,0c-0.6,2.2-1.3,4.3-2.4,7.1l-2.6,7.3L-954.3-495.8z"/>
		<path d="M-931.1-507.2l2.3,0.6l-3.9,15.8l7.6,1.9l-0.5,1.9l-9.8-2.4L-931.1-507.2z"/>
		<path d="M-917.1-504.1l-1.5,10.7c-0.6,4,1,6,3.4,6.3c2.7,0.4,4.6-1.1,5.2-5.1l1.5-10.7l2.4,0.3l-1.5,10.5c-0.8,5.5-4,7.4-7.9,6.8
			c-3.7-0.5-6.2-3-5.4-8.6l1.5-10.6L-917.1-504.1z"/>
		<path d="M-902.5-484l0.5-18.2l2.6,0.1l5.6,9.4c1.3,2.2,2.3,4.1,3.1,6l0.1,0c-0.2-2.4-0.1-4.6-0.1-7.5l0.2-7.6l2.2,0.1l-0.5,18.2
			l-2.4-0.1l-5.5-9.4c-1.2-2.1-2.4-4.2-3.2-6.2l-0.1,0c0.1,2.3,0.1,4.5,0,7.5l-0.2,7.8L-902.5-484z"/>
		<path d="M-884.1-501.7c1.4-0.3,3.1-0.7,4.9-0.8c3.4-0.3,5.8,0.2,7.5,1.6c1.8,1.3,2.9,3.3,3.2,6.3c0.3,3-0.4,5.5-2,7.3
			c-1.5,1.9-4.2,3-7.8,3.4c-1.7,0.2-3.1,0.2-4.3,0.2L-884.1-501.7z M-880.3-485.9c0.6,0.1,1.5,0,2.4-0.1c5-0.5,7.5-3.5,7-8.4
			c-0.4-4.3-3-6.8-8-6.3c-1.2,0.1-2.1,0.3-2.7,0.5L-880.3-485.9z"/>
		<path d="M-855-496.3l-6.9,1.4l1.3,6.4l7.7-1.6l0.4,1.9l-10,2l-3.6-17.8l9.6-1.9l0.4,1.9l-7.3,1.5l1.1,5.6l6.9-1.4L-855-496.3z"/>
		<path d="M-841.1-500.3l-6.8,2l1.9,6.3l7.6-2.3l0.6,1.9l-9.8,2.9l-5.2-17.4l9.4-2.8l0.6,1.9l-7.2,2.1l1.6,5.5l6.8-2L-841.1-500.3z"
			/>
		<path d="M-833-494l-7-16.8l2.4-1l8.9,6.2c2.1,1.4,3.8,2.8,5.3,4.2l0,0c-1.1-2.2-2-4.2-3.1-6.8l-2.9-7l2-0.9l7,16.8l-2.2,0.9
			l-8.9-6.3c-2-1.4-3.9-2.8-5.5-4.3l-0.1,0.1c1,2.1,1.9,4.1,3.1,6.9l3,7.2L-833-494z"/>
		<path d="M-816.4-502.9c-0.5-0.9-0.2-1.8,0.7-2.3s1.7-0.1,2.2,0.8c0.4,0.9,0.2,1.8-0.7,2.3C-815-501.7-815.9-502.1-816.4-502.9z"/>
		<path d="M-798.1-512.5c-0.5,0.8-1.8,2.1-3.6,3.3c-4.4,2.7-9.4,1.9-12.5-3.1c-3-4.9-1.7-10.2,3.1-13.1c1.9-1.2,3.4-1.5,4.1-1.6
			l0.5,1.9c-1,0.1-2.2,0.5-3.5,1.3c-3.6,2.2-4.6,6-2.1,10.1c2.3,3.8,6,4.9,9.8,2.6c1.2-0.7,2.3-1.8,2.9-2.7L-798.1-512.5z"/>
		<path d="M-787.5-531.5c3.9,4.9,2.9,9.9-0.8,12.8c-3.8,3-8.7,2.1-12.1-2.3c-3.6-4.6-3-9.7,0.8-12.7
			C-795.7-536.8-790.8-535.8-787.5-531.5z M-798.5-522.6c2.4,3.1,6.2,4.5,9.1,2.2c2.9-2.3,2.5-6.3-0.1-9.5c-2.2-2.9-6-4.7-9.1-2.3
			C-801.6-529.8-800.9-525.7-798.5-522.6z"/>
		<path d="M-772.7-544.4c-1.9-1.7-4.2-3.7-5.8-5.3l-0.1,0.1c1.1,1.9,2.2,4.1,3.3,6.5l4.1,8.5l-1.2,1.3l-8.3-4
			c-2.4-1.2-4.6-2.3-6.5-3.4l0,0c1.6,1.6,3.7,3.9,5.5,5.9l5.2,5.8l-1.6,1.6l-12.1-13.6l2.1-2.1l8.5,3.9c2.1,1,4,2,5.7,3l0.1-0.1
			c-1-1.6-2-3.5-3-5.7l-4-8.5l2.1-2.1l13.8,11.9l-1.6,1.6L-772.7-544.4z"/>
	</g>
	<g>
		<path d="M-949.1-740.6c13.4,0,23.6,2.6,30.6,7.7c7,5.1,10.7,11.9,11,20.3c0.1,8-2.8,16.5-8.8,25.6c-6,9-14.7,17.4-26,24.9
			c0.4,0,0.7,0,0.8,0c18.9,0,30.8,6.8,35.6,20.5c4.4,11.7,2.8,25.5-5,41.2c-7.5,15.5-18.2,27.3-32.3,35.4
			c-9.9,5.7-20.2,8.5-30.8,8.5c-12,0-22.2-3-30.6-9c-8.4-6-12.6-13.5-12.6-22.5c0-7.2,2.7-13.3,8-18.3c5.3-5,12.1-8.9,20.4-11.7
			c-0.1-14.4-0.2-30.8-0.2-49.3c0-19.3,1.1-35.7,3.3-49.1c-0.4,0.6-1,1.3-1.7,2.2c-0.7,0.9-1.2,1.6-1.7,2.2
			c-0.4,0.6-0.9,1.2-1.4,1.9c-0.6,0.7-1,1.2-1.4,1.7s-0.9,0.8-1.3,1.1c-0.5,0.3-0.9,0.6-1.3,0.7c-0.4,0.1-0.8,0.2-1.2,0.2
			c-2.8,0-3-2.3-0.8-6.8c2.6-5.5,7.2-10.8,13.9-15.7c1.1-3,2.1-4.6,2.9-4.6c0.5,0,0.8,0.6,0.8,1.9
			C-969.7-737.7-959.7-740.6-949.1-740.6z M-948.9-736.3c-12.3,0-22.7,4.4-31.3,13.2c-2.6,18.4-3.9,37.1-3.9,56.3
			c0,16.1-0.1,31.9-0.4,47.2c4.8-1.4,9.6-2.3,14.3-2.7c4.7-0.4,8.5-0.4,11.3,0c2.8,0.4,4.2,1.2,4.2,2.3c0,0.7-1.3,1.3-4,1.8
			c-2.7,0.5-6.7,1.1-12,2c-5.3,0.8-9.9,1.7-13.8,2.7c-0.7,26.9-1.4,40.4-2.3,40.4c-1,0-1.7-13-2.1-39.1c-16.8,5-25.3,13.1-25.3,24.4
			c0,6.9,4,13,12.1,18.2c8.1,5.2,17.6,7.9,28.5,7.9c14.5,0,28.3-6.9,41.4-20.7c11.5-12,18.5-24.8,21.1-38.5c2.9-14.8-0.8-25-11-30.8
			c-5.1-2.9-11.6-4.3-19.5-4.3c-1.9,0-4,0.2-6.3,0.7c-2.3,0.5-4.3,1-6.1,1.7c-1.8,0.6-3.5,1.1-5.2,1.6c-1.7,0.4-2.9,0.5-3.8,0.3
			c-0.9-0.2-1.3-0.8-1.3-1.8c0-1.4,1.2-2.8,3.6-4.1c2.4-1.4,5.4-2.4,9-3.1c11.3-7.3,20.5-15.7,27.5-25.3s10.6-18.4,10.6-26.5
			c0.1-7.2-2.7-12.9-8.6-17.2C-927.9-734.1-936.9-736.3-948.9-736.3z"/>
		<path d="M-842.7-724.3c12.7,0,19.3,8.6,19.9,25.9c0.4,16.7-4.4,36.2-14.5,58.6c-9.2,20.6-19,34.5-29.2,41.8
			c-0.4,0.3-0.8,0.5-1,0.6c4,13.5,11.3,23.2,21.9,29c8.6,4.6,17.9,7.3,28,8.2c10.1,0.9,20.5,0.4,30.9-1.6
			c10.5-1.9,21.6-4.4,33.2-7.3c11.7-3,24.2-5.8,37.6-8.5c13.4-2.7,27.1-4.7,41.1-5.9c14-1.2,29.6-0.7,46.7,1.6
			c17.1,2.3,34.4,6.7,51.8,13.1c2.6,1,3.6,2.5,2.9,4.6c-0.8,2.2-2.9,2.8-6.2,1.7c-17.5-6.3-34.9-10.7-52.1-12.9s-32.7-2.9-46.5-1.9
			c-13.8,1-27.3,2.8-40.5,5.4c-13.2,2.6-25.5,5.2-36.9,8.1c-11.5,2.8-22.4,5.1-32.8,6.9c-10.4,1.8-20.7,2.1-30.9,1
			c-10.2-1.1-19.8-4-28.8-8.7c-10.6-5.7-18.7-15.5-24.3-29.6c-5.6-14.1-8.4-30.5-8.4-49.3c0.4-13.8,2.2-26.7,5.3-38.8
			c3.1-12.1,7.6-22.1,13.4-30C-856.3-720.3-849.9-724.3-842.7-724.3z M-842.9-718.5c-5.5,0-10.7,3.6-15.4,10.9s-8.5,16.6-11.3,28
			c-2.8,11.5-4.2,23.5-4.3,36c-0.1,16.8,1.7,31.1,5.4,42.8c9.4-7,18.5-20.8,27.3-41.4c9.5-22.2,13.9-41,13.2-56.3
			C-828.5-711.8-833.5-718.5-842.9-718.5z"/>
	</g>
	<path class="st6" d="M-738.9-579.9c30.7-55.3,25.6-124.4-22.5-177.6c-60.8-67.3-165.1-77.2-229.2-25.6"/>
</g>
</svg>
